<?xml version="1.0" encoding="utf-8"?>
<!-- Generator: Adobe Illustrator 15.0.0, SVG Export Plug-In . SVG Version: 6.00 Build 0)  -->
<!DOCTYPE svg PUBLIC "-//W3C//DTD SVG 1.1//EN" "http://www.w3.org/Graphics/SVG/1.1/DTD/svg11.dtd">
<svg version="1.1" id="Layer_1" xmlns="http://www.w3.org/2000/svg" xmlns:xlink="http://www.w3.org/1999/xlink" x="0px" y="0px"
	 width="261.497px" height="235.667px" viewBox="0 0 261.497 235.667" enable-background="new 0 0 261.497 235.667"
	 xml:space="preserve">
<g>
	<defs>
		<rect id="SVGID_1_" x="9.164" y="7.612" width="245.502" height="221.721"/>
	</defs>
	<clipPath id="SVGID_2_">
		<use xlink:href="#SVGID_1_"  overflow="visible"/>
	</clipPath>
	<path clip-path="url(#SVGID_2_)" fill="#EFD489" d="M84.191,107.535c27.592,0,49.96-22.368,49.96-49.961
		c0-27.594-22.368-49.962-49.96-49.962c-27.593,0-49.961,22.368-49.961,49.962C34.23,85.167,56.598,107.535,84.191,107.535"/>
	<path clip-path="url(#SVGID_2_)" fill="#E4B83B" d="M84.191,96.108c21.282,0,38.535-17.253,38.535-38.535
		s-17.253-38.534-38.535-38.534c-21.282,0-38.535,17.252-38.535,38.534S62.909,96.108,84.191,96.108"/>
	<path clip-path="url(#SVGID_2_)" fill="#EFD489" d="M47.917,200.001c21.403,0,38.754-17.351,38.754-38.754
		s-17.351-38.754-38.754-38.754c-21.403,0-38.754,17.351-38.754,38.754S26.515,200.001,47.917,200.001"/>
	<path clip-path="url(#SVGID_2_)" fill="#E4B83B" d="M47.917,191.138c16.508,0,29.891-13.382,29.891-29.892
		c0-16.508-13.383-29.89-29.891-29.89c-16.508,0-29.891,13.382-29.891,29.89C18.027,177.756,31.41,191.138,47.917,191.138"/>
	<path clip-path="url(#SVGID_2_)" fill="#EFD489" d="M180.3,229.333c41.07,0,74.364-33.295,74.364-74.365
		S221.371,80.602,180.3,80.602c-41.071,0-74.365,33.296-74.365,74.366S139.229,229.333,180.3,229.333"/>
	<path clip-path="url(#SVGID_2_)" fill="#E4B83B" d="M180.3,212.325c31.677,0,57.356-25.681,57.356-57.357
		c0-31.678-25.68-57.357-57.356-57.357c-31.678,0-57.357,25.68-57.357,57.357C122.943,186.645,148.623,212.325,180.3,212.325"/>
</g>
</svg>
