<?xml version="1.0" encoding="utf-8"?>
<!-- Generator: Adobe Illustrator 21.0.2, SVG Export Plug-In . SVG Version: 6.00 Build 0)  -->
<svg version="1.1" id="Layer_1" xmlns="http://www.w3.org/2000/svg" xmlns:xlink="http://www.w3.org/1999/xlink" x="0px" y="0px"
	 viewBox="0 0 10 96" style="enable-background:new 0 0 10 96;" xml:space="preserve">
<style type="text/css">
	.st0{fill:#FFFFFF;}
</style>
<g>
	<path class="st0" d="M2.3,91.5c0,0.6,0.2,1.1,0.7,1.5c0.5,0.3,1.1,0.5,2,0.5c1.8,0,2.7-0.7,2.7-2c0-0.6-0.1-1.2-0.4-2h1.4
		c0.3,0.7,0.4,1.4,0.4,2.2c0,1.2-0.4,2-1.1,2.7s-1.7,0.9-3,0.9c-1.2,0-2.2-0.3-3-1s-1.1-1.6-1.1-2.7c0-0.8,0.2-1.6,0.6-2.3l1.4,0.5
		C2.5,90.4,2.3,91,2.3,91.5z"/>
	<path class="st0" d="M1.9,87.3c-0.7-0.7-1-1.6-1-2.8c0-1.2,0.4-2.2,1.1-2.8c0.7-0.6,1.7-1,3-1s2.3,0.3,3,1s1.1,1.6,1.1,2.8
		c0,1.2-0.4,2.2-1.1,2.8c-0.7,0.7-1.7,1-3.1,1C3.7,88.3,2.6,88,1.9,87.3z M2.3,84.5c0,0.7,0.2,1.2,0.7,1.5s1.1,0.5,2,0.5
		c1.8,0,2.7-0.7,2.7-2s-0.9-2-2.7-2S2.3,83.2,2.3,84.5z"/>
	<path class="st0" d="M1,72h8v2.2l-6,3.5l0,0c1.1-0.1,1.9-0.1,2.3-0.1H9V79H1v-2.1l6-3.5l0,0c-1,0.1-1.7,0.1-2.2,0.1H1V72z"/>
	<path class="st0" d="M2.4,66.9H9v1.7H2.4v2.2H1v-6h1.4V66.9z"/>
	<path class="st0" d="M9,57.6v1.8L7.1,60v2.9L9,63.4v1.8l-8-2.8v-2.1L9,57.6z M5.7,62.4v-2.1l-2.9,0.9c-0.2,0.1-0.4,0.1-0.5,0.1
		C2.7,61.5,3.8,61.9,5.7,62.4z"/>
	<path class="st0" d="M2.3,53.4c0,0.6,0.2,1.1,0.7,1.5c0.5,0.3,1.1,0.5,2,0.5c1.8,0,2.7-0.7,2.7-2c0-0.6-0.1-1.2-0.4-2h1.4
		C9,52,9.1,52.7,9.1,53.5c0,1.2-0.4,2-1.1,2.7c-0.7,0.6-1.7,0.9-3,0.9c-1.2,0-2.2-0.3-3-1s-1.1-1.6-1.1-2.7c0-0.8,0.2-1.6,0.6-2.3
		l1.4,0.5C2.5,52.3,2.3,52.9,2.3,53.4z"/>
	<path class="st0" d="M2.4,46.6H9v1.7H2.4v2.2H1v-6h1.4V46.6z"/>
</g>
</svg>
