<?xml version="1.0" encoding="utf-8"?>
<!-- Generator: Adobe Illustrator 21.0.2, SVG Export Plug-In . SVG Version: 6.00 Build 0)  -->
<svg version="1.1" id="Layer_1" xmlns="http://www.w3.org/2000/svg" xmlns:xlink="http://www.w3.org/1999/xlink" x="0px" y="0px"
	 viewBox="0 0 395.8 307" style="enable-background:new 0 0 395.8 307;" xml:space="preserve">
<style type="text/css">
	.st0{fill:#404041;}
	.st1{fill:#E3B73A;}
	.st2{fill:#E8C562;}
	.st3{fill:#F5E6BB;}
	.st4{fill:#F7EDCF;}
	.st5{fill:#F0DA9A;}
</style>
<g>
	<g>
		<path class="st0" d="M14.3,73c1.2,0,2.1,0.3,2.8,0.8c0.6,0.5,0.9,1.3,0.9,2.4c0,1.1-0.3,1.9-1,2.4c-0.7,0.6-1.6,0.9-2.9,0.9h-0.9
			V83h-2.1V73H14.3z M13.2,74.8v3h0.7c1.3,0,1.9-0.5,1.9-1.5c0-0.5-0.1-0.9-0.4-1.1s-0.7-0.4-1.3-0.4L13.2,74.8L13.2,74.8z"/>
		<path class="st0" d="M26,83h-6.2V73H22v8.2h4V83z"/>
		<path class="st0" d="M36.1,83h-2.3l-0.7-2.4h-3.6L28.8,83h-2.3L30,73h2.6L36.1,83z M30,78.9h2.6l-1.1-3.6
			c-0.1-0.3-0.1-0.5-0.2-0.7C31.2,75.1,30.8,76.5,30,78.9z"/>
		<path class="st0" d="M46.2,73v10h-2.7l-4.3-7.5h-0.1c0.1,1.4,0.1,2.3,0.1,2.9V83h-1.9V73h2.7l4.3,7.5h0c-0.1-1.2-0.1-2.2-0.1-2.8
			V73H46.2z"/>
		<path class="st0" d="M57.6,73v10h-2.7l-4.3-7.5h-0.1c0.1,1.4,0.1,2.3,0.1,2.9V83h-1.9V73h2.7l4.3,7.5h0c-0.1-1.2-0.1-2.2-0.1-2.8
			V73H57.6z"/>
		<path class="st0" d="M62.2,83h-2.1V73h2.1V83z"/>
		<path class="st0" d="M73.6,73v10h-2.7l-4.3-7.5h-0.1c0.1,1.4,0.1,2.3,0.1,2.9V83h-1.9V73h2.7l4.3,7.5h0c-0.1-1.2-0.1-2.2-0.1-2.8
			V73H73.6z"/>
		<path class="st0" d="M79.9,79.2v-1.8h4v5.2c-1.1,0.4-2.3,0.6-3.5,0.6c-1.5,0-2.7-0.4-3.4-1.3s-1.2-2.1-1.2-3.8
			c0-1.6,0.5-2.9,1.4-3.8c0.9-0.9,2.2-1.4,3.8-1.4c1,0,2,0.2,3,0.6l-0.7,1.7c-0.7-0.4-1.5-0.5-2.3-0.5c-0.9,0-1.6,0.3-2.2,0.9
			c-0.6,0.6-0.8,1.5-0.8,2.5c0,1.1,0.2,1.9,0.7,2.4c0.4,0.6,1.1,0.9,1.9,0.9c0.4,0,0.9,0,1.3-0.1v-2.1L79.9,79.2L79.9,79.2z"/>
	</g>
	<g>
		<path class="st0" d="M321.5,219v3.8h-2.1v-10h2.9c1.4,0,2.4,0.2,3,0.7c0.7,0.5,1,1.2,1,2.2c0,0.6-0.2,1.1-0.5,1.6
			c-0.3,0.5-0.8,0.8-1.4,1.1c1.5,2.2,2.5,3.7,2.9,4.3H325l-2.4-3.8L321.5,219L321.5,219z M321.5,214.6v2.7h0.7
			c0.7,0,1.2-0.1,1.5-0.3s0.5-0.6,0.5-1c0-0.5-0.2-0.8-0.5-1c-0.3-0.2-0.8-0.3-1.5-0.3L321.5,214.6L321.5,214.6z"/>
		<path class="st0" d="M334.4,221.1v1.7h-5.7v-10h5.7v1.7h-3.6v2.2h3.4v1.7h-3.4v2.6L334.4,221.1L334.4,221.1z"/>
		<path class="st0" d="M342.4,220c0,0.9-0.3,1.6-1,2.1s-1.5,0.8-2.6,0.8c-1.1,0-2.1-0.2-2.9-0.6v-2c0.7,0.3,1.2,0.5,1.7,0.6
			c0.5,0.1,0.9,0.2,1.3,0.2s0.8-0.1,1-0.3s0.4-0.4,0.4-0.8c0-0.2-0.1-0.4-0.2-0.5c-0.1-0.1-0.3-0.3-0.5-0.4
			c-0.2-0.1-0.6-0.4-1.3-0.7c-0.6-0.3-1.1-0.6-1.4-0.9c-0.7-0.6-1-1.3-1-2.2s0.3-1.6,0.9-2.1c0.6-0.5,1.4-0.8,2.5-0.8
			c0.9,0,1.9,0.2,3,0.7l-0.7,1.6c-0.5-0.2-1-0.4-1.3-0.5c-0.4-0.1-0.7-0.1-1.1-0.1c-0.4,0-0.6,0.1-0.9,0.3c-0.2,0.2-0.3,0.4-0.3,0.7
			c0,0.4,0.2,0.7,0.5,0.9c0.2,0.1,0.6,0.4,1.3,0.7c0.9,0.4,1.6,0.9,1.9,1.3S342.4,219.4,342.4,220z"/>
		<path class="st0" d="M349.9,221.1v1.7h-5.7v-10h5.7v1.7h-3.6v2.2h3.4v1.7h-3.4v2.6L349.9,221.1L349.9,221.1z"/>
		<path class="st0" d="M360.4,222.8h-2.3l-0.7-2.4h-3.6l-0.7,2.4h-2.3l3.5-10h2.6L360.4,222.8z M354.3,218.7h2.6l-1.1-3.6
			c-0.1-0.3-0.1-0.5-0.2-0.7C355.4,214.9,355,216.3,354.3,218.7z"/>
		<path class="st0" d="M363.8,219v3.8h-2.1v-10h2.9c1.3,0,2.4,0.2,3,0.7c0.7,0.5,1,1.2,1,2.2c0,0.6-0.2,1.1-0.5,1.6
			c-0.3,0.5-0.8,0.8-1.4,1.1c1.5,2.2,2.5,3.7,2.9,4.3h-2.4l-2.4-3.8L363.8,219L363.8,219z M363.8,214.6v2.7h0.7
			c0.7,0,1.2-0.1,1.5-0.3s0.5-0.6,0.5-1c0-0.5-0.2-0.8-0.5-1c-0.3-0.2-0.8-0.3-1.5-0.3L363.8,214.6L363.8,214.6z"/>
		<path class="st0" d="M375.1,214.5c-0.8,0-1.4,0.3-1.9,0.9c-0.4,0.6-0.7,1.4-0.7,2.5c0,2.2,0.8,3.3,2.5,3.3c0.7,0,1.6-0.2,2.5-0.5
			v1.8c-0.8,0.3-1.7,0.5-2.7,0.5c-1.5,0-2.6-0.4-3.3-1.3c-0.8-0.9-1.2-2.1-1.2-3.8c0-1.6,0.4-2.8,1.3-3.8c0.9-0.9,2-1.4,3.4-1.4
			c1,0,1.9,0.2,2.9,0.7l-0.7,1.7C376.4,214.7,375.7,214.5,375.1,214.5z"/>
		<path class="st0" d="M387.9,212.8v10h-2.1v-4.3h-4v4.3h-2.1v-10h2.1v3.9h4v-3.9H387.9z"/>
	</g>
	<polygon class="st1" points="163.7,212.8 233.7,93.8 267.6,153.5 233.9,212.8 	"/>
	<g>
		<g>
			<path class="st0" d="M130.3,155.3"/>
		</g>
	</g>
	<polygon class="st2" points="165.5,95.6 234.4,95.6 199.3,155.3 130.9,155.3 	"/>
	<polygon class="st3" points="131.3,154.8 164.7,213.5 199.2,154.8 	"/>
	<polygon class="st4" points="234.4,95.6 268.7,36.5 337.8,155.3 268.7,155.3 	"/>
	<polygon class="st4" points="267.6,153.3 337.3,155.3 269.2,272.3 234.4,212.8 	"/>
	<polygon class="st5" points="268.7,36.5 130.9,36.5 164.8,95.6 234.4,95.6 	"/>
	<polygon class="st5" points="61.2,155.3 130.9,155.8 164.8,95.9 130.9,36.5 	"/>
	<polygon class="st4" points="234.1,212.7 268.5,272.1 131,273.9 165.2,212.8 	"/>
	<polygon class="st5" points="165.5,214.7 131.2,274.2 61.2,155.1 130.7,154.8 	"/>
</g>
</svg>
