<?xml version="1.0" encoding="utf-8"?>
<!-- Generator: Adobe Illustrator 15.0.0, SVG Export Plug-In . SVG Version: 6.00 Build 0)  -->
<!DOCTYPE svg PUBLIC "-//W3C//DTD SVG 1.1//EN" "http://www.w3.org/Graphics/SVG/1.1/DTD/svg11.dtd">
<svg version="1.1" id="Layer_1" xmlns="http://www.w3.org/2000/svg" xmlns:xlink="http://www.w3.org/1999/xlink" x="0px" y="0px"
	 width="372.83px" height="307px" viewBox="0 0 372.83 307" enable-background="new 0 0 372.83 307" xml:space="preserve">
<g>
	<path fill="#404041" d="M32.721,15.496v3.83h-2.116V9.347h2.904c1.35,0,2.352,0.246,3.007,0.739s0.982,1.242,0.982,2.248
		c0,0.587-0.161,1.108-0.482,1.566c-0.321,0.457-0.78,0.817-1.376,1.08c1.501,2.24,2.479,3.688,2.935,4.346h-2.351l-2.381-3.83
		H32.721z M32.721,11.083v2.692h0.683c0.667,0,1.16-0.111,1.479-0.334c0.318-0.223,0.478-0.568,0.478-1.039
		c0-0.47-0.161-0.808-0.481-1.013c-0.321-0.204-0.828-0.307-1.521-0.307H32.721z"/>
	<path fill="#404041" d="M45.575,17.582v1.744h-5.741V9.347h5.741v1.736H41.95v2.191h3.375v1.729H41.95v2.578H45.575z"/>
	<path fill="#404041" d="M53.545,16.559c0,0.895-0.324,1.603-0.971,2.123s-1.527,0.781-2.639,0.781s-2.075-0.2-2.889-0.6v-1.964
		c0.672,0.293,1.241,0.503,1.707,0.63c0.465,0.126,0.912,0.189,1.342,0.189c0.429,0,0.767-0.09,1.012-0.27s0.368-0.443,0.368-0.792
		c0-0.202-0.056-0.378-0.167-0.527c-0.111-0.149-0.264-0.291-0.458-0.425c-0.195-0.134-0.617-0.354-1.267-0.66
		c-0.649-0.306-1.124-0.59-1.422-0.853c-0.667-0.576-1.001-1.3-1.001-2.169s0.298-1.558,0.895-2.063
		c0.596-0.506,1.423-0.759,2.479-0.759c0.895,0,1.883,0.235,2.965,0.705l-0.683,1.646c-0.531-0.217-0.973-0.368-1.327-0.454
		s-0.711-0.129-1.073-0.129c-0.362,0-0.65,0.091-0.865,0.272s-0.322,0.428-0.322,0.735c0,0.354,0.179,0.652,0.539,0.896
		c0.177,0.121,0.624,0.352,1.342,0.689c0.925,0.445,1.562,0.893,1.911,1.343C53.371,15.355,53.545,15.906,53.545,16.559z"/>
	<path fill="#404041" d="M61.098,17.582v1.744h-5.741V9.347h5.741v1.736h-3.625v2.191h3.375v1.729h-3.375v2.578H61.098z"/>
	<path fill="#404041" d="M71.571,19.326h-2.283l-0.72-2.374h-3.64l-0.72,2.374h-2.283l3.519-10.018h2.586L71.571,19.326z
		 M65.458,15.178h2.601l-1.13-3.647c-0.081-0.272-0.142-0.498-0.182-0.675C66.611,11.401,66.182,12.843,65.458,15.178z"/>
	<path fill="#404041" d="M74.945,15.496v3.83H72.83V9.347h2.904c1.35,0,2.352,0.246,3.007,0.739s0.982,1.242,0.982,2.248
		c0,0.587-0.161,1.108-0.482,1.566c-0.321,0.457-0.78,0.817-1.376,1.08c1.501,2.24,2.479,3.688,2.935,4.346h-2.351l-2.381-3.83
		H74.945z M74.945,11.083v2.692h0.683c0.667,0,1.16-0.111,1.479-0.334c0.318-0.223,0.478-0.568,0.478-1.039
		c0-0.47-0.161-0.808-0.481-1.013c-0.321-0.204-0.828-0.307-1.521-0.307H74.945z"/>
	<path fill="#404041" d="M86.29,10.97c-0.793,0-1.41,0.298-1.85,0.895c-0.435,0.602-0.652,1.436-0.652,2.502
		c0,2.225,0.834,3.337,2.502,3.337c0.708,0,1.557-0.174,2.548-0.523v1.774c-0.814,0.339-1.729,0.509-2.745,0.509
		c-1.451,0-2.561-0.441-3.33-1.323c-0.768-0.883-1.152-2.146-1.152-3.788c-0.015-1.558,0.406-2.81,1.263-3.758
		s1.996-1.411,3.416-1.392c0.971,0,1.946,0.235,2.927,0.705l-0.683,1.722C87.609,11.189,86.861,10.97,86.29,10.97z"/>
	<path fill="#404041" d="M99.136,9.347v9.979h-2.108v-4.308h-3.951v4.308h-2.116V9.347h2.116v3.913h3.951V9.347H99.136z"/>
</g>
<g>
	<defs>
		<rect id="SVGID_1_" x="1" y="4.326" width="366.403" height="297.674"/>
	</defs>
	<clipPath id="SVGID_2_">
		<use xlink:href="#SVGID_1_"  overflow="visible"/>
	</clipPath>
	<g clip-path="url(#SVGID_2_)">
		<path fill="#404041" d="M36.346,300.256V302h-5.741v-9.979h5.741v1.736h-3.625v2.191h3.375v1.729h-3.375v2.578H36.346z"/>
	</g>
	<g clip-path="url(#SVGID_2_)">
		<path fill="#404041" d="M43.13,296.973L46.497,302h-2.411l-2.321-3.776L39.444,302h-2.268l3.306-5.149l-3.094-4.83h2.335
			l2.146,3.595l2.108-3.595h2.283L43.13,296.973z"/>
	</g>
	<g clip-path="url(#SVGID_2_)">
		<path fill="#404041" d="M53.491,300.256V302H47.75v-9.979h5.741v1.736h-3.625v2.191h3.375v1.729h-3.375v2.578H53.491z"/>
		<path fill="#404041" d="M59.808,293.644c-0.793,0-1.41,0.298-1.85,0.895c-0.435,0.602-0.652,1.436-0.652,2.502
			c0,2.225,0.834,3.337,2.502,3.337c0.708,0,1.557-0.174,2.548-0.523v1.774c-0.814,0.339-1.729,0.509-2.745,0.509
			c-1.451,0-2.561-0.441-3.33-1.323c-0.768-0.883-1.152-2.146-1.152-3.788c-0.015-1.558,0.406-2.81,1.263-3.758
			s1.996-1.411,3.416-1.392c0.971,0,1.946,0.235,2.927,0.705l-0.683,1.722C61.127,293.863,60.379,293.644,59.808,293.644z"/>
	</g>
	<g clip-path="url(#SVGID_2_)">
		<path fill="#404041" d="M70.497,292.021h2.116v6.461c0.01,1.107-0.362,1.997-1.115,2.669c-0.753,0.673-1.762,1.001-3.026,0.986
			c-1.289,0-2.287-0.33-2.992-0.99c-0.705-0.659-1.058-1.558-1.058-2.695v-6.431h2.108v6.112c0,0.778,0.155,1.345,0.466,1.698
			c0.311,0.354,0.816,0.531,1.517,0.531s1.206-0.18,1.517-0.539c0.311-0.358,0.467-0.928,0.467-1.706V292.021z"/>
		<path fill="#404041" d="M78.898,293.779V302h-2.116v-8.221h-2.707v-1.759h7.53v1.759H78.898z"/>
		<path fill="#404041" d="M85.261,302h-2.116v-9.979h2.116V302z"/>
		<path fill="#404041" d="M88.552,293.181c0.829-0.875,2.009-1.313,3.542-1.313c1.532,0,2.703,0.442,3.515,1.327
			s1.217,2.154,1.217,3.808c0,1.652-0.41,2.922-1.229,3.807s-1.993,1.327-3.522,1.327s-2.704-0.442-3.522-1.327
			c-0.819-0.885-1.229-2.159-1.229-3.822S87.733,294.056,88.552,293.181z M92.086,293.628c-0.839,0-1.472,0.283-1.899,0.85
			s-0.641,1.405-0.641,2.518c0,2.244,0.843,3.367,2.529,3.367s2.529-1.123,2.529-3.367C94.604,294.75,93.765,293.628,92.086,293.628
			z"/>
		<path fill="#404041" d="M107.745,292.021V302h-2.691l-4.338-7.546h-0.061c0.086,1.365,0.129,2.316,0.129,2.852V302h-1.888v-9.979
			h2.662l4.338,7.477h0.045c-0.065-1.248-0.099-2.166-0.099-2.752v-4.725H107.745z"/>
	</g>
</g>
<g>
	<path fill="#404041" d="M296.704,153.873c1.213,0,2.135,0.262,2.764,0.784c0.63,0.523,0.944,1.312,0.944,2.362
		c0,1.052-0.335,1.862-1.005,2.431c-0.67,0.569-1.627,0.854-2.87,0.854h-0.902v3.549h-2.116v-9.979H296.704z M295.635,155.609v2.958
		h0.689c1.3,0,1.949-0.501,1.949-1.502c0-0.501-0.136-0.868-0.405-1.104c-0.271-0.235-0.697-0.353-1.278-0.353H295.635z"/>
	<path fill="#404041" d="M308.451,163.853h-6.158v-9.979h2.116v8.235h4.042V163.853z"/>
	<path fill="#404041" d="M318.574,163.853h-2.283l-0.72-2.374h-3.641l-0.721,2.374h-2.282l3.519-10.018h2.586L318.574,163.853z
		 M312.462,159.704h2.601l-1.13-3.647c-0.081-0.272-0.142-0.498-0.182-0.675C313.614,155.928,313.185,157.369,312.462,159.704z"/>
</g>
<g>
	<path fill="#404041" d="M328.679,153.873v9.979h-2.691l-4.338-7.546h-0.061c0.086,1.365,0.129,2.316,0.129,2.852v4.694h-1.889
		v-9.979h2.662l4.338,7.477h0.045c-0.065-1.248-0.099-2.166-0.099-2.752v-4.725H328.679z"/>
	<path fill="#404041" d="M340.038,153.873v9.979h-2.691l-4.338-7.546h-0.061c0.086,1.365,0.129,2.316,0.129,2.852v4.694h-1.889
		v-9.979h2.662l4.338,7.477h0.045c-0.065-1.248-0.099-2.166-0.099-2.752v-4.725H340.038z"/>
	<path fill="#404041" d="M344.665,163.853h-2.116v-9.979h2.116V163.853z"/>
	<path fill="#404041" d="M356.024,153.873v9.979h-2.691l-4.338-7.546h-0.061c0.086,1.365,0.129,2.316,0.129,2.852v4.694h-1.889
		v-9.979h2.662l4.338,7.477h0.045c-0.065-1.248-0.099-2.166-0.099-2.752v-4.725H356.024z"/>
</g>
<g>
	<path fill="#404041" d="M362.298,160.008v-1.76h3.959v5.172c-1.143,0.38-2.326,0.569-3.55,0.569c-1.501,0-2.65-0.442-3.446-1.327
		s-1.194-2.143-1.194-3.772c0-1.631,0.46-2.898,1.38-3.804c0.931-0.904,2.209-1.357,3.838-1.357c1.025,0,2.012,0.205,2.957,0.614
		l-0.697,1.699c-0.729-0.364-1.486-0.546-2.275-0.546c-0.91,0-1.642,0.307-2.195,0.921s-0.83,1.451-0.83,2.51
		c0,1.06,0.222,1.875,0.667,2.446c0.444,0.571,1.089,0.856,1.934,0.856c0.44,0,0.888-0.045,1.343-0.137v-2.085H362.298z"/>
</g>
<polygon fill="#E3B73A" points="103.579,213.796 173.523,94.813 207.397,154.534 173.736,213.796 "/>
<g>
	<defs>
		<rect id="SVGID_3_" x="1" y="4.326" width="366.403" height="297.674"/>
	</defs>
	<clipPath id="SVGID_4_">
		<use xlink:href="#SVGID_3_"  overflow="visible"/>
	</clipPath>
	<path clip-path="url(#SVGID_4_)" fill="#404041" d="M70.166,156.29"/>
</g>
<polygon fill="#E9C662" points="105.315,96.568 174.197,96.568 139.189,156.29 70.732,156.29 "/>
<polygon fill="#F1DB9D" points="71.111,155.793 104.561,214.541 139.001,155.793 "/>
<polygon fill="#F6E7BC" points="174.197,96.568 208.496,37.466 277.662,156.29 208.496,156.29 "/>
<polygon fill="#F6E7BC" points="207.397,154.305 277.174,156.29 209.068,273.309 174.196,213.796 "/>
<polygon fill="#F1DB9B" points="208.496,37.466 70.732,37.466 104.677,96.567 174.197,96.567 "/>
<polygon fill="#F1DB9B" points="104.677,96.878 70.732,156.804 1,156.29 70.732,37.466 "/>
<polygon fill="#F8EED0" points="173.912,213.684 208.385,273.1 70.864,274.936 105.057,213.806 "/>
<polygon fill="#F8EED0" points="105.311,215.677 71.091,275.239 1.043,156.096 70.57,155.793 "/>
</svg>
