<?xml version="1.0" encoding="utf-8"?>
<!-- Generator: Adobe Illustrator 21.0.2, SVG Export Plug-In . SVG Version: 6.00 Build 0)  -->
<svg version="1.1" id="Layer_1" xmlns="http://www.w3.org/2000/svg" xmlns:xlink="http://www.w3.org/1999/xlink" x="0px" y="0px"
	 viewBox="0 0 10 96" style="enable-background:new 0 0 10 96;" xml:space="preserve">
<style type="text/css">
	.st0{fill:#FFFFFF;}
</style>
<g>
	<path class="st0" d="M9,90.6L9,95H1v-0.9h7.1v-3.5H9z"/>
	<path class="st0" d="M8.2,84.7H9v4.4H1l0-4.4h0.8l0,3.5h2.6l0-3.3h0.8l0,3.3h2.9L8.2,84.7z"/>
	<path class="st0" d="M9,77v1l-2.5,1v3.2l2.5,1v0.9l-8-3.2l0-0.8L9,77z M5.6,81.8v-2.6l-2.5,0.9c-0.3,0.1-0.7,0.2-1.2,0.4
		c0.3,0.1,0.7,0.2,1.2,0.3L5.6,81.8z"/>
	<path class="st0" d="M5.7,75H9v0.9H1l0-2.2c0-1,0.2-1.7,0.6-2.2s0.9-0.7,1.7-0.7c1.1,0,1.8,0.5,2.1,1.6L9,70.3v1.1l-3.3,1.9V75z
		 M1.8,75h3.1v-1.3c0-0.7-0.1-1.1-0.4-1.4c-0.3-0.3-0.6-0.5-1.2-0.5c-0.5,0-0.9,0.2-1.1,0.5c-0.2,0.3-0.4,0.8-0.4,1.5L1.8,75z"/>
	<path class="st0" d="M1,63.6l0-0.9h8v1.1l-6.7,4.4v0c0.8-0.1,1.5-0.1,2.2-0.1H9V69H1l0-1l6.7-4.3v0c-1,0.1-1.7,0.1-2.1,0.1H1z"/>
	<path class="st0" d="M5.2,50.5c-0.3,0-0.5,0-0.6,0c-0.2,0-0.8,0-1.9-0.1v0L9,52.5L9,54L2.7,56v0c1.3-0.1,2.2-0.1,2.5-0.1H9v1.5H1
		l0-2.3l6.1-1.9v0l-6.1-2l0-2.3h8v1.6H5.2z"/>
	<path class="st0" d="M1.9,46.3c-0.7-0.7-1-1.6-1-2.8c0-1.2,0.4-2.2,1.1-2.8c0.7-0.6,1.7-1,3-1s2.3,0.3,3,1c0.7,0.7,1.1,1.6,1.1,2.8
		S8.8,45.6,8,46.3c-0.7,0.7-1.7,1-3.1,1C3.7,47.2,2.6,46.9,1.9,46.3z M2.3,43.4c0,0.7,0.2,1.2,0.7,1.5c0.5,0.3,1.1,0.5,2,0.5
		c1.8,0,2.7-0.7,2.7-2c0-1.3-0.9-2-2.7-2S2.3,42.1,2.3,43.4z"/>
	<path class="st0" d="M5.9,36.3H9V38H1l0-2.3c0-1.1,0.2-1.9,0.6-2.4c0.4-0.5,1-0.8,1.8-0.8c0.5,0,0.9,0.1,1.3,0.4
		C5,33.1,5.3,33.5,5.5,34c1.8-1.2,3-2,3.5-2.3v1.9l-3.1,1.9V36.3z M2.4,36.3h2.2v-0.5c0-0.5-0.1-0.9-0.3-1.2
		c-0.2-0.3-0.5-0.4-0.8-0.4s-0.6,0.1-0.8,0.4c-0.2,0.3-0.2,0.7-0.2,1.2V36.3z"/>
	<path class="st0" d="M7.6,26H9l0,4.6H1L1,26h1.4v2.9h1.8l0-2.7h1.4v2.7h2.1L7.6,26z"/>
</g>
</svg>
