<?xml version="1.0" encoding="utf-8"?>
<!-- Generator: Adobe Illustrator 21.0.2, SVG Export Plug-In . SVG Version: 6.00 Build 0)  -->
<svg version="1.1" id="Layer_1" xmlns="http://www.w3.org/2000/svg" xmlns:xlink="http://www.w3.org/1999/xlink" x="0px" y="0px"
	 viewBox="0 0 10 96" style="enable-background:new 0 0 10 96;" xml:space="preserve">
<style type="text/css">
	.st0{fill:#898989;}
</style>
<g>
	<path class="st0" d="M5,95.5c-1.3,0-2.3-0.3-3-1S0.9,93,0.9,91.9c0-1.2,0.4-2.1,1.1-2.7s1.7-1,3-1s2.3,0.3,3,1
		c0.7,0.6,1.1,1.6,1.1,2.7c0,1.2-0.4,2.1-1.1,2.7C7.3,95.2,6.3,95.5,5,95.5z M2.5,89.8c-0.6,0.4-0.8,1.1-0.8,2s0.3,1.6,0.8,2
		c0.6,0.5,1.4,0.7,2.4,0.7c1.1,0,1.9-0.2,2.5-0.7s0.8-1.1,0.8-2s-0.3-1.5-0.8-2c-0.6-0.5-1.4-0.7-2.5-0.7S3.1,89.4,2.5,89.8z"/>
	<path class="st0" d="M1,81.3v-0.9h5.2c0.9,0,1.6,0.3,2.1,0.8c0.5,0.6,0.8,1.3,0.8,2.3s-0.3,1.7-0.8,2.2s-1.2,0.8-2.2,0.8H1v-0.9
		h5.2c0.7,0,1.2-0.2,1.5-0.5c0.4-0.4,0.5-0.9,0.5-1.6S8,82.3,7.7,81.9c-0.4-0.4-0.9-0.5-1.5-0.5H1V81.3z"/>
	<path class="st0" d="M5.7,77.3H9v0.9H1V76c0-1,0.2-1.7,0.6-2.2s0.9-0.7,1.7-0.7c1.1,0,1.8,0.5,2.1,1.6L9,72.6v1.1l-3.3,1.9V77.3z
		 M1.8,77.3h3.1V76c0-0.7-0.1-1.1-0.4-1.4s-0.6-0.5-1.2-0.5c-0.5,0-0.9,0.2-1.1,0.5c-0.2,0.3-0.4,0.8-0.4,1.5L1.8,77.3z"/>
	<path class="st0" d="M1,65.7c0-1,0.2-1.7,0.6-2.2s1-0.8,1.9-0.8c0.8,0,1.5,0.3,1.9,0.8c0.5,0.5,0.7,1.3,0.7,2.3v0.7H9v1.7H1V65.7z
		 M2.4,66.5h2.4V66c0-1-0.4-1.6-1.2-1.6c-0.4,0-0.7,0.1-0.9,0.3c-0.2,0.2-0.3,0.6-0.3,1L2.4,66.5z"/>
	<path class="st0" d="M7.6,56.6H9v4.6H1v-4.6h1.4v2.9h1.8v-2.7h1.4v2.7h2.1L7.6,56.6z"/>
	<path class="st0" d="M1.9,54.3c-0.7-0.7-1-1.6-1-2.8s0.4-2.2,1.1-2.8s1.7-1,3-1s2.3,0.3,3,1s1.1,1.6,1.1,2.8S8.7,53.7,8,54.3
		c-0.7,0.7-1.7,1-3.1,1C3.7,55.3,2.6,55,1.9,54.3z M2.3,51.5c0,0.7,0.2,1.2,0.7,1.5s1.1,0.5,2,0.5c1.8,0,2.7-0.7,2.7-2s-0.9-2-2.7-2
		S2.3,50.1,2.3,51.5z"/>
	<path class="st0" d="M1,43.5c0-1,0.2-1.7,0.6-2.2s1-0.8,1.9-0.8c0.8,0,1.5,0.3,1.9,0.8c0.5,0.5,0.7,1.3,0.7,2.3v0.7h2.8L9,46H1
		V43.5z M2.4,44.3h2.4v-0.6c0-1-0.4-1.6-1.2-1.6c-0.4,0-0.7,0.1-0.9,0.3c-0.2,0.2-0.3,0.6-0.3,1L2.4,44.3z"/>
	<path class="st0" d="M9,34.1V39H1v-1.7h6.6v-3.2H9z"/>
	<path class="st0" d="M7.6,28.1H9v4.6H1v-4.6h1.4V31h1.8v-2.7h1.4V31h2.1L7.6,28.1z"/>
</g>
</svg>
