<?xml version="1.0" encoding="utf-8"?>
<!-- Generator: Adobe Illustrator 21.0.2, SVG Export Plug-In . SVG Version: 6.00 Build 0)  -->
<svg version="1.1" id="Layer_1" xmlns="http://www.w3.org/2000/svg" xmlns:xlink="http://www.w3.org/1999/xlink" x="0px" y="0px"
	 viewBox="0 0 10 96" style="enable-background:new 0 0 10 96;" xml:space="preserve">
<style type="text/css">
	.st0{fill:#898989;}
</style>
<g>
	<path class="st0" d="M6.6,90.3c0.7,0,1.3,0.3,1.6,0.8c0.4,0.5,0.6,1.2,0.6,2.1s-0.1,1.6-0.4,2.1H7.5C7.9,94.6,8,93.8,8,93.1
		c0-0.6-0.1-1.1-0.3-1.4c-0.2-0.3-0.6-0.5-1-0.5c-0.3,0-0.5,0.1-0.7,0.2S5.7,91.7,5.5,92S5.2,92.7,5,93.2c-0.3,0.7-0.6,1.3-0.9,1.6
		c-0.4,0.3-0.8,0.5-1.4,0.5S1.5,95,1.2,94.5c-0.4-0.5-0.5-1.1-0.5-1.9s0.1-1.5,0.4-2.2l0.8,0.3c-0.3,0.7-0.4,1.3-0.4,1.9
		c0,0.5,0.1,0.9,0.3,1.2c0.2,0.3,0.5,0.4,0.9,0.4c0.3,0,0.5,0,0.7-0.1s0.3-0.3,0.5-0.5C4,93.3,4.1,93,4.3,92.5
		c0.3-0.8,0.6-1.4,1-1.7C5.6,90.4,6,90.3,6.6,90.3z"/>
	<path class="st0" d="M4.7,89c-1.3,0-2.3-0.3-3-1s-1.1-1.5-1.1-2.7s0.4-2.1,1.1-2.7s1.7-1,3-1s2.3,0.3,3,1c0.7,0.6,1.1,1.6,1.1,2.7
		c0,1.2-0.4,2.1-1.1,2.7C7,88.7,6,89,4.7,89z M2.3,83.4c-0.6,0.4-0.8,1.1-0.8,2s0.3,1.6,0.8,2c0.6,0.5,1.4,0.7,2.4,0.7
		c1.1,0,1.9-0.2,2.5-0.7s0.8-1.1,0.8-2s-0.3-1.5-0.8-2c-0.6-0.5-1.4-0.7-2.5-0.7C3.6,82.7,2.8,82.9,2.3,83.4z"/>
	<path class="st0" d="M8.7,75.5v4.4h-8V79h7.1v-3.5H8.7z"/>
	<path class="st0" d="M0.7,69.1v-0.9h5.2c0.9,0,1.6,0.3,2.1,0.8c0.5,0.6,0.8,1.3,0.8,2.3S8.5,73,8,73.5s-1.2,0.8-2.2,0.8H0.7v-0.9
		h5.2c0.7,0,1.2-0.2,1.5-0.5c0.4-0.4,0.6-1,0.6-1.6c0-0.7-0.2-1.2-0.5-1.6c-0.4-0.4-0.9-0.5-1.5-0.5H0.7V69.1z"/>
	<path class="st0" d="M1.6,63.6h7.2v0.9H1.6V67H0.7v-6h0.8L1.6,63.6z"/>
	<path class="st0" d="M8.7,59v0.9h-8V59H8.7z"/>
	<path class="st0" d="M4.7,57.2c-1.3,0-2.3-0.3-3-1c-0.7-0.6-1.1-1.5-1.1-2.7s0.4-2.1,1.1-2.7c0.7-0.6,1.7-1,3-1s2.3,0.3,3,1
		s1.1,1.6,1.1,2.7c0,1.2-0.4,2.1-1.1,2.7C7,56.9,6,57.2,4.7,57.2z M2.3,51.5c-0.6,0.4-0.8,1.1-0.8,2s0.3,1.6,0.8,2
		c0.6,0.5,1.4,0.7,2.4,0.7c1.1,0,1.9-0.2,2.5-0.7s0.8-1.1,0.8-2s-0.3-1.5-0.8-2c-0.6-0.5-1.4-0.7-2.5-0.7S2.8,51.1,2.3,51.5z"/>
	<path class="st0" d="M0.7,42.7v-0.9h8v1.1L2,47.3l0,0c0.8-0.1,1.5-0.1,2.2-0.1h4.5v0.9h-8v-1l6.7-4.3l0,0c-1,0.1-1.7,0.1-2.1,0.1
		L0.7,42.7z"/>
	<path class="st0" d="M6.6,35.1c0.7,0,1.3,0.3,1.6,0.8c0.4,0.5,0.6,1.2,0.6,2.1c0,0.9-0.1,1.6-0.4,2.1H7.6C7.9,39.4,8,38.7,8,37.9
		c0-0.6-0.1-1.1-0.3-1.4c-0.2-0.3-0.6-0.5-1-0.5c-0.3,0-0.5,0.1-0.7,0.2s-0.3,0.3-0.5,0.6C5.4,37.1,5.2,37.5,5,38
		c-0.3,0.7-0.6,1.3-0.9,1.6c-0.4,0.3-0.8,0.5-1.4,0.5s-1.1-0.2-1.5-0.7s-0.5-1.1-0.5-1.9s0.1-1.5,0.4-2.2l0.8,0.3
		c-0.3,0.7-0.4,1.3-0.4,1.9c0,0.5,0.1,0.9,0.3,1.2C2,39,2.3,39.1,2.6,39.1s0.5,0,0.7-0.1s0.3-0.3,0.5-0.5c0.2-0.3,0.3-0.6,0.5-1.1
		c0.3-0.8,0.6-1.4,1-1.7C5.6,35.3,6,35.1,6.6,35.1z"/>
	<path class="st0" d="M6.5,25.7c0.7,0,1.3,0.3,1.7,0.8s0.6,1.2,0.6,2.1s-0.2,1.7-0.5,2.3H6.7c0.2-0.5,0.4-1,0.5-1.4s0.2-0.7,0.2-1.1
		c0-0.3-0.1-0.6-0.2-0.8c-0.1-0.2-0.4-0.3-0.6-0.3s-0.3,0-0.4,0.1S6,27.6,5.9,27.8c-0.1,0.2-0.3,0.5-0.5,1C5,29.3,4.8,29.7,4.6,30
		c-0.5,0.5-1,0.8-1.7,0.8s-1.2-0.2-1.6-0.7s-0.6-1.1-0.6-2c0-0.7,0.2-1.5,0.6-2.4l1.3,0.5c-0.2,0.4-0.3,0.8-0.4,1.1
		C2.1,27.6,2,27.9,2,28.2c0,0.3,0.1,0.5,0.2,0.7s0.3,0.3,0.6,0.3s0.5-0.1,0.7-0.4c0.1-0.1,0.3-0.5,0.6-1.1c0.4-0.7,0.7-1.2,1.1-1.5
		C5.5,25.8,6,25.7,6.5,25.7z"/>
	<path class="st0" d="M0.7,19.4v-1.7h5.2c0.9,0,1.6,0.3,2.1,0.9C8.6,19.2,8.8,20,8.8,21S8.5,22.8,8,23.4s-1.2,0.8-2.2,0.8H0.7v-1.7
		h4.9c0.6,0,1.1-0.1,1.4-0.4C7.3,22,7.4,21.5,7.4,21c0-0.6-0.1-1-0.4-1.2s-0.7-0.4-1.4-0.4H0.7z"/>
	<path class="st0" d="M8.7,14.1v1.7h-8v-1.7H8.7z"/>
	<path class="st0" d="M2.1,9h6.6v1.7H2.1v2.2H0.7v-6h1.4V9z"/>
	<path class="st0" d="M7.3,1h1.4v4.6h-8V1h1.4v2.9h1.8V1.2h1.4v2.7h2.1L7.3,1z"/>
</g>
</svg>
