<?xml version="1.0" encoding="utf-8"?>
<!-- Generator: Adobe Illustrator 21.0.2, SVG Export Plug-In . SVG Version: 6.00 Build 0)  -->
<svg version="1.1" id="Layer_1" xmlns="http://www.w3.org/2000/svg" xmlns:xlink="http://www.w3.org/1999/xlink" x="0px" y="0px"
	 viewBox="0 0 372.8 224" style="enable-background:new 0 0 372.8 224;" xml:space="preserve">
<style type="text/css">
	.st0{clip-path:url(#SVGID_2_);fill:#EABF53;}
	.st1{clip-path:url(#SVGID_4_);fill:#D29A41;}
	.st2{clip-path:url(#SVGID_6_);fill:#C48B32;}
	.st3{clip-path:url(#SVGID_8_);fill:#EAC25E;}
	.st4{clip-path:url(#SVGID_10_);fill:none;stroke:#FFFFFF;stroke-width:0.5;}
	.st5{clip-path:url(#SVGID_12_);fill:#EAC25E;}
	.st6{clip-path:url(#SVGID_14_);fill:none;stroke:#FFFFFF;stroke-width:0.5;}
	.st7{clip-path:url(#SVGID_16_);fill:#EAC25E;}
	.st8{clip-path:url(#SVGID_18_);fill:none;stroke:#FFFFFF;stroke-width:0.5;}
	.st9{clip-path:url(#SVGID_20_);}
	.st10{clip-path:url(#SVGID_22_);}
	.st11{opacity:0.75;}
	.st12{clip-path:url(#SVGID_24_);fill:#FFFFFF;}
	.st13{clip-path:url(#SVGID_26_);fill:#F0D799;}
	.st14{clip-path:url(#SVGID_28_);fill:#E8C562;}
	.st15{clip-path:url(#SVGID_30_);fill:#E3B73A;}
	.st16{clip-path:url(#SVGID_32_);fill:#E8C468;}
	.st17{clip-path:url(#SVGID_34_);fill:#E3B73B;}
	.st18{clip-path:url(#SVGID_36_);fill:#E2A842;}
	.st19{clip-path:url(#SVGID_38_);fill:none;stroke:#58595B;stroke-width:0.5;stroke-miterlimit:10;stroke-dasharray:2.057,2.057;}
	.st20{clip-path:url(#SVGID_40_);fill:none;stroke:#58595B;stroke-width:0.5;stroke-miterlimit:10;stroke-dasharray:2.034,2.034;}
	.st21{clip-path:url(#SVGID_42_);}
	.st22{clip-path:url(#SVGID_44_);fill:none;stroke:#58595B;stroke-width:0.5;stroke-miterlimit:10;}
	.st23{clip-path:url(#SVGID_46_);fill:none;stroke:#58595B;stroke-width:0.5;stroke-miterlimit:10;stroke-dasharray:2.01,2.01;}
	.st24{clip-path:url(#SVGID_48_);fill:none;stroke:#58595B;stroke-width:0.5;stroke-miterlimit:10;stroke-dasharray:2.026,2.026;}
	.st25{clip-path:url(#SVGID_50_);fill:none;stroke:#58595B;stroke-width:0.5;stroke-miterlimit:10;stroke-dasharray:1.762,1.762;}
	.st26{clip-path:url(#SVGID_52_);fill:none;stroke:#58595B;stroke-width:0.5;stroke-miterlimit:10;}
	.st27{clip-path:url(#SVGID_54_);fill:none;stroke:#58595B;stroke-width:0.5;stroke-miterlimit:10;stroke-dasharray:2.042,2.042;}
	.st28{clip-path:url(#SVGID_56_);fill:none;stroke:#58595B;stroke-width:0.5;stroke-miterlimit:10;stroke-dasharray:1.983,1.983;}
	.st29{clip-path:url(#SVGID_58_);fill:none;stroke:#58595B;stroke-width:0.5;stroke-miterlimit:10;}
	.st30{clip-path:url(#SVGID_60_);fill:#F6E7C7;}
	.st31{fill:none;stroke:#FFFFFF;stroke-width:0.5;stroke-miterlimit:10;}
	.st32{fill:#F0D9A1;}
	.st33{fill:none;}
</style>
<g>
	<g>
		<g>
			<defs>
				<rect id="SVGID_1_" x="5.5" y="7.1" width="363.6" height="205.9"/>
			</defs>
			<clipPath id="SVGID_2_">
				<use xlink:href="#SVGID_1_"  style="overflow:visible;"/>
			</clipPath>
			<polygon class="st0" points="6.2,66.2 149.4,148 251.9,91.5 110.3,7.5 			"/>
		</g>
	</g>
	<g>
		<g>
			<defs>
				<rect id="SVGID_3_" x="5.5" y="7.1" width="363.6" height="205.9"/>
			</defs>
			<clipPath id="SVGID_4_">
				<use xlink:href="#SVGID_3_"  style="overflow:visible;"/>
			</clipPath>
			<polygon class="st1" points="6.2,66.1 6.2,73.9 149.2,155.3 149.2,148 			"/>
		</g>
	</g>
	<g>
		<g>
			<defs>
				<rect id="SVGID_5_" x="5.5" y="7.1" width="363.6" height="205.9"/>
			</defs>
			<clipPath id="SVGID_6_">
				<use xlink:href="#SVGID_5_"  style="overflow:visible;"/>
			</clipPath>
			<polygon class="st2" points="149.2,148 149.2,155.3 251.9,98.1 251.9,91.6 			"/>
		</g>
	</g>
	<g>
		<g>
			<defs>
				<rect id="SVGID_7_" x="5.5" y="7.1" width="363.6" height="205.9"/>
			</defs>
			<clipPath id="SVGID_8_">
				<use xlink:href="#SVGID_7_"  style="overflow:visible;"/>
			</clipPath>
			<polygon class="st3" points="90,92.6 151.3,128.3 191.8,104.4 131,68.9 			"/>
		</g>
	</g>
	<g>
		<g>
			<defs>
				<rect id="SVGID_9_" x="5.5" y="7.1" width="363.6" height="205.9"/>
			</defs>
			<clipPath id="SVGID_10_">
				<use xlink:href="#SVGID_9_"  style="overflow:visible;"/>
			</clipPath>
			<polygon class="st4" points="90,92.6 151.3,128.3 191.8,104.4 131,68.9 			"/>
		</g>
	</g>
	<g>
		<g>
			<defs>
				<rect id="SVGID_11_" x="5.5" y="7.1" width="363.6" height="205.9"/>
			</defs>
			<clipPath id="SVGID_12_">
				<use xlink:href="#SVGID_11_"  style="overflow:visible;"/>
			</clipPath>
			<polygon class="st5" points="90,79.6 151.3,115.3 191.8,91.4 131,55.9 			"/>
		</g>
	</g>
	<g>
		<g>
			<defs>
				<rect id="SVGID_13_" x="5.5" y="7.1" width="363.6" height="205.9"/>
			</defs>
			<clipPath id="SVGID_14_">
				<use xlink:href="#SVGID_13_"  style="overflow:visible;"/>
			</clipPath>
			<polygon class="st6" points="90,79.6 151.3,115.3 191.8,91.4 131,55.9 			"/>
		</g>
	</g>
	<g>
		<g>
			<defs>
				<rect id="SVGID_15_" x="5.5" y="7.1" width="363.6" height="205.9"/>
			</defs>
			<clipPath id="SVGID_16_">
				<use xlink:href="#SVGID_15_"  style="overflow:visible;"/>
			</clipPath>
			<polygon class="st7" points="90,66.9 151.3,102.6 191.8,78.7 131,43.2 			"/>
		</g>
	</g>
	<g>
		<g>
			<defs>
				<rect id="SVGID_17_" x="5.5" y="7.1" width="363.6" height="205.9"/>
			</defs>
			<clipPath id="SVGID_18_">
				<use xlink:href="#SVGID_17_"  style="overflow:visible;"/>
			</clipPath>
			<polygon class="st8" points="90,66.9 151.3,102.6 191.8,78.7 131,43.2 			"/>
		</g>
	</g>
	<g>
		<g>
			<defs>
				<rect id="SVGID_19_" x="5.5" y="7.1" width="363.6" height="205.9"/>
			</defs>
			<clipPath id="SVGID_20_">
				<use xlink:href="#SVGID_19_"  style="overflow:visible;"/>
			</clipPath>
			<g class="st9">
				<g>
					<g>
						<defs>
							<rect id="SVGID_21_" x="5.5" y="7.1" width="363.6" height="205.9"/>
						</defs>
						<clipPath id="SVGID_22_">
							<use xlink:href="#SVGID_21_"  style="overflow:visible;"/>
						</clipPath>
						<g class="st10">
							<g>
								<g class="st11">
									<g>
										<defs>
											<rect id="SVGID_23_" x="133.7" y="66.2" width="60.9" height="37.1"/>
										</defs>
										<clipPath id="SVGID_24_">
											<use xlink:href="#SVGID_23_"  style="overflow:visible;"/>
										</clipPath>
										<path class="st12" d="M175.4,74.7c-0.6,0-1.2,0.2-1.8,0.6c-0.7,0.4-1.2,0.9-1.3,1.5l1.4,0.3c0.1-0.5,0.4-0.8,0.8-1
											c0.5-0.3,1-0.3,1.5,0c0.3,0.2,0.4,0.4,0.3,0.6c-0.1,0.2-0.3,0.4-0.8,0.7l-0.4,0.3l0.9,0.7l0.4-0.3
											c0.5-0.3,0.9-0.4,1.2-0.5c0.3,0,0.6,0,0.9,0.3c0.3,0.2,0.4,0.4,0.4,0.6s-0.3,0.4-0.7,0.7c-0.5,0.3-1.1,0.5-1.9,0.6
											l1.1,0.8c0.7-0.1,1.4-0.4,2-0.7c0.7-0.4,1.2-0.9,1.2-1.4c0.1-0.5-0.2-0.9-0.7-1.3c-0.4-0.3-0.8-0.4-1.3-0.5
											c-0.5,0-1,0.1-1.5,0.3l0,0c0.3-0.3,0.4-0.6,0.4-0.9s-0.2-0.6-0.6-0.9C176.5,74.8,176,74.7,175.4,74.7 M173.8,81.7
											l-2.3,1.4l-4.8-3.6l-1.2,0.7l5.9,4.3l3.5-2.1L173.8,81.7z M166.9,85.7l-1.5-1.1l1.9-1.1l-1-0.8l-1.9,1.1l-1.3-1l2.1-1.2
											l-1-0.8l-3.3,1.9l5.9,4.3l3.3-1.9l-1-0.8L166.9,85.7z M162.3,88.3c-0.1-0.1-0.4-0.2-0.7-0.4c-0.4-0.2-0.6-0.3-0.9-0.4
											l-4.6-1.9l-1.2,0.7l7.8,3.2l1.3-0.8l-3.9-5.5l-1.2,0.7l2.4,3.2C161.8,87.7,162.1,88.1,162.3,88.3 M157.2,91.4l-1.5-1.1
											l1.9-1.1l-1-0.8l-1.9,1.1l-1.3-1l2.1-1.2l-1-0.8l-3.3,1.9l5.9,4.3l3.3-1.9l-1-0.8L157.2,91.4z M155,92.7l-2.3,1.4
											l-4.8-3.6l-1.2,0.7l5.9,4.3l3.5-2.1L155,92.7z"/>
									</g>
								</g>
							</g>
						</g>
						<g class="st10">
							<g>
								<defs>
									<rect id="SVGID_25_" x="5.5" y="7.1" width="363.6" height="205.9"/>
								</defs>
								<clipPath id="SVGID_26_">
									<use xlink:href="#SVGID_25_"  style="overflow:visible;"/>
								</clipPath>
								<polygon class="st13" points="205.6,43.4 307.7,102.2 369.1,66.5 266.2,7.5 								"/>
							</g>
							<g>
								<g>
									<defs>
										<rect id="SVGID_27_" x="5.5" y="7.1" width="363.6" height="205.9"/>
									</defs>
									<clipPath id="SVGID_28_">
										<use xlink:href="#SVGID_27_"  style="overflow:visible;"/>
									</clipPath>
									<polygon class="st14" points="205.6,43.5 205.6,51.4 307.7,111.1 307.7,102.2 									"/>
								</g>
								<g>
									<g>
										<defs>
											<rect id="SVGID_29_" x="5.5" y="7.1" width="363.6" height="205.9"/>
										</defs>
										<clipPath id="SVGID_30_">
											<use xlink:href="#SVGID_29_"  style="overflow:visible;"/>
										</clipPath>
										<polygon class="st15" points="307.6,102.2 307.6,111.1 369.1,73.9 369.1,66.4 										"/>
									</g>
									<g>
										<g>
											<defs>
												<rect id="SVGID_31_" x="5.5" y="7.1" width="363.6" height="205.9"/>
											</defs>
											<clipPath id="SVGID_32_">
												<use xlink:href="#SVGID_31_"  style="overflow:visible;"/>
											</clipPath>
											<polygon class="st16" points="18.9,154.8 106.7,205.4 159.6,174.7 71.1,124 											"/>
										</g>
										<g>
											<g>
												<defs>
													<rect id="SVGID_33_" x="5.5" y="7.1" width="363.6" height="205.9"/>
												</defs>
												<clipPath id="SVGID_34_">
													<use xlink:href="#SVGID_33_"  style="overflow:visible;"/>
												</clipPath>
												<polygon class="st17" points="18.9,161.7 106.7,213 106.7,205.4 18.9,154.9 												"/>
											</g>
											<g>
												<g>
													<defs>
														<rect id="SVGID_35_" x="5.5" y="7.1" width="363.6" height="205.9"/>
													</defs>
													<clipPath id="SVGID_36_">
														<use xlink:href="#SVGID_35_"  style="overflow:visible;"/>
													</clipPath>
													<polygon class="st18" points="106.7,205.4 106.7,213 159.6,181 159.6,174.6 													"/>
												</g>
												<g>
													<g>
														<defs>
															<rect id="SVGID_37_" x="5.5" y="7.1" width="363.6" height="205.9"/>
														</defs>
														<clipPath id="SVGID_38_">
															<use xlink:href="#SVGID_37_"  style="overflow:visible;"/>
														</clipPath>
														<line class="st19" x1="39.2" y1="94.2" x2="8.9" y2="112.2"/>
													</g>
													<g>
														<g>
															<defs>
																<rect id="SVGID_39_" x="5.5" y="7.1" width="363.6" height="205.9"/>
															</defs>
															<clipPath id="SVGID_40_">
																<use xlink:href="#SVGID_39_"  style="overflow:visible;"/>
															</clipPath>
															<line class="st20" x1="10.2" y1="116" x2="46" y2="136"/>
														</g>
														<g>
															<g>
																<defs>
																	<rect id="SVGID_41_" x="5.5" y="7.1" width="363.6" height="205.9"/>
																</defs>
																<clipPath id="SVGID_42_">
																	<use xlink:href="#SVGID_41_"  style="overflow:visible;"/>
																</clipPath>
																<g class="st21">
																	<g>
																		<g>
																			<defs>
																				<rect id="SVGID_43_" x="5.5" y="7.1" width="363.6" height="205.9"/>
																			</defs>
																			<clipPath id="SVGID_44_">
																				<use xlink:href="#SVGID_43_"  style="overflow:visible;"/>
																			</clipPath>
																			<path class="st22" d="M47.3,136.7l1.3,0.7 M7.6,113l-1.3,0.8l1.3,0.7 M43.1,91.8l-1.3,0.8"/>
																		</g>
																		<g>
																			<g>
																				<defs>
																					<rect id="SVGID_45_" x="5.5" y="7.1" width="363.6" height="205.9"/>
																				</defs>
																				<clipPath id="SVGID_46_">
																					<use xlink:href="#SVGID_45_"  style="overflow:visible;"/>
																				</clipPath>
																				<line class="st23" x1="144.9" y1="192.5" x2="169.8" y2="206.2"/>
																			</g>
																			<g>
																				<g>
																					<defs>
																						<rect id="SVGID_47_" x="5.5" y="7.1" width="363.6" height="205.9"/>
																					</defs>
																					<clipPath id="SVGID_48_">
																						<use xlink:href="#SVGID_47_"  style="overflow:visible;"/>
																					</clipPath>
																					<line class="st24" x1="176.4" y1="205.4" x2="352.7" y2="103.1"/>
																				</g>
																				<g>
																					<g>
																						<defs>
																							<rect id="SVGID_49_" x="5.5" y="7.1" width="363.6" height="205.9"/>
																						</defs>
																						<clipPath id="SVGID_50_">
																							<use xlink:href="#SVGID_49_"  style="overflow:visible;"/>
																						</clipPath>
																						<line class="st25" x1="351.8" y1="99.7" x2="339.1" y2="92.8"/>
																					</g>
																					<g>
																						<g>
																							<defs>
																								<rect id="SVGID_51_" x="5.5" y="7.1" width="363.6" height="205.9"/>
																							</defs>
																							<clipPath id="SVGID_52_">
																								<use xlink:href="#SVGID_51_"  style="overflow:visible;"/>
																							</clipPath>
																							<path class="st26" d="M338,92.1l-1.2-0.6 M354,102.3l1.3-0.8l-1.2-0.6 M171.1,206.9l1.3,0.7l1.3-0.8
																								 M140.9,190.3l1.3,0.7"/>
																						</g>
																						<g>
																							<g>
																								<defs>
																									<rect id="SVGID_53_" x="5.5" y="7.1" width="363.6" height="205.9"/>
																								</defs>
																								<clipPath id="SVGID_54_">
																									<use xlink:href="#SVGID_53_"  style="overflow:visible;"/>
																								</clipPath>
																								<line class="st27" x1="225.5" y1="26.6" x2="195.2" y2="9"/>
																							</g>
																							<g>
																								<g>
																									<defs>
																										<rect id="SVGID_55_" x="5.5" y="7.1" width="363.6" height="205.9"/>
																									</defs>
																									<clipPath id="SVGID_56_">
																										<use xlink:href="#SVGID_55_"  style="overflow:visible;"/>
																									</clipPath>
																									<line class="st28" x1="188.7" y1="9.7" x2="154.1" y2="29.5"/>
																								</g>
																								<g>
																									<g>
																										<defs>
																											<rect id="SVGID_57_" x="5.5" y="7.1" width="363.6" height="205.9"/>
																										</defs>
																										<clipPath id="SVGID_58_">
																											<use xlink:href="#SVGID_57_"  style="overflow:visible;"/>
																										</clipPath>
																										<path class="st29" d="M152.8,30.2l-1.3,0.7 M193.9,8.3l-1.3-0.8l-1.3,0.7 M229.5,28.9l-1.3-0.8"/>
																									</g>
																									<g>
																										<g>
																											<defs>
																												<rect id="SVGID_59_" x="5.5" y="7.1" width="363.6" height="205.9"/>
																											</defs>
																											<clipPath id="SVGID_60_">
																												<use xlink:href="#SVGID_59_"  style="overflow:visible;"/>
																											</clipPath>
																											<polygon class="st30" points="230.4,38.5 288.8,72.5 327.4,49.8 269.5,16 																											
																												"/>
																										</g>
																										<g>
																											<g>
																												<polygon class="st31" points="230.4,38.5 288.8,72.5 327.4,49.8 269.5,16 																												
																													"/>
																											</g>
																											<g>
																												<g>
																													<polygon class="st32" points="46.4,150.9 91.3,177.1 121,159.6 76.4,133.6 
																																																											"/>
																												</g>
																												<g>
																													<polygon class="st31" points="46.4,150.9 91.3,177.1 121,159.6 76.4,133.6 
																																																											"/>
																												</g>
																											</g>
																										</g>
																									</g>
																								</g>
																							</g>
																						</g>
																					</g>
																				</g>
																			</g>
																		</g>
																	</g>
																</g>
															</g>
														</g>
													</g>
												</g>
											</g>
										</g>
									</g>
								</g>
							</g>
						</g>
					</g>
				</g>
			</g>
		</g>
	</g>
</g>
<rect x="5.5" y="7.1" class="st33" width="363.6" height="205.9"/>
<rect x="5.5" y="7.1" class="st33" width="363.6" height="205.9"/>
<rect x="5.5" y="7.1" class="st33" width="363.6" height="205.9"/>
</svg>
