<?xml version="1.0" encoding="utf-8"?>
<!-- Generator: Adobe Illustrator 15.0.0, SVG Export Plug-In . SVG Version: 6.00 Build 0)  -->
<!DOCTYPE svg PUBLIC "-//W3C//DTD SVG 1.1//EN" "http://www.w3.org/Graphics/SVG/1.1/DTD/svg11.dtd">
<svg version="1.1" id="Layer_1" xmlns="http://www.w3.org/2000/svg" xmlns:xlink="http://www.w3.org/1999/xlink" x="0px" y="0px"
	 width="372.83px" height="224px" viewBox="0 0 372.83 224" enable-background="new 0 0 372.83 224" xml:space="preserve">
<g>
	<defs>
		<rect id="SVGID_1_" x="5.83" y="9.181" width="363.619" height="206.819"/>
	</defs>
	<clipPath id="SVGID_2_">
		<use xlink:href="#SVGID_1_"  overflow="visible"/>
	</clipPath>
	<polygon clip-path="url(#SVGID_2_)" fill="#E2AA3A" points="13.173,69.918 150.783,148.625 249.291,94.293 113.207,13.554 	"/>
	<polygon clip-path="url(#SVGID_2_)" fill="#D29A41" points="13.173,69.898 13.173,77.331 150.578,155.611 150.578,148.624 	"/>
	<polygon clip-path="url(#SVGID_2_)" fill="#C48B32" points="150.578,148.625 150.578,155.612 249.291,100.609 249.291,94.353 	"/>
	<polygon clip-path="url(#SVGID_2_)" fill="#E5BE4E" points="93.678,95.317 152.581,129.644 191.579,106.691 133.082,72.569 	"/>
	<polygon clip-path="url(#SVGID_2_)" fill="none" stroke="#FFFFFF" stroke-width="0.5" points="93.678,95.317 152.581,129.644 
		191.579,106.691 133.082,72.569 	"/>
	<polygon clip-path="url(#SVGID_2_)" fill="#E5BE4E" points="93.678,82.833 152.581,117.159 191.579,94.206 133.082,60.084 	"/>
	<polygon clip-path="url(#SVGID_2_)" fill="none" stroke="#FFFFFF" stroke-width="0.5" points="93.678,82.833 152.581,117.159 
		191.579,94.206 133.082,60.084 	"/>
	<polygon clip-path="url(#SVGID_2_)" fill="#E5BE4E" points="93.678,70.646 152.581,104.972 191.579,82.02 133.082,47.897 	"/>
	<polygon clip-path="url(#SVGID_2_)" fill="none" stroke="#FFFFFF" stroke-width="0.5" points="93.678,70.646 152.581,104.972 
		191.579,82.02 133.082,47.897 	"/>
	<g clip-path="url(#SVGID_2_)">
		<defs>
			<rect id="SVGID_3_" x="5.83" y="9.181" width="363.619" height="206.819"/>
		</defs>
		<clipPath id="SVGID_4_">
			<use xlink:href="#SVGID_3_"  overflow="visible"/>
		</clipPath>
		<g opacity="0.75" clip-path="url(#SVGID_4_)">
			<g>
				<defs>
					<rect id="SVGID_5_" x="135.69" y="69.995" width="58.532" height="35.667"/>
				</defs>
				<clipPath id="SVGID_6_">
					<use xlink:href="#SVGID_5_"  overflow="visible"/>
				</clipPath>
				<path clip-path="url(#SVGID_6_)" fill="#FFFFFF" d="M175.753,78.105c-0.565,0.018-1.135,0.196-1.703,0.53
					c-0.697,0.41-1.108,0.9-1.237,1.467l1.361,0.292c0.139-0.449,0.391-0.781,0.756-0.997c0.525-0.308,1-0.303,1.429,0.013
					c0.271,0.202,0.368,0.403,0.289,0.604c-0.077,0.203-0.333,0.429-0.766,0.683l-0.423,0.249l0.913,0.676l0.417-0.247
					c0.466-0.273,0.859-0.43,1.18-0.469c0.321-0.038,0.62,0.045,0.9,0.252c0.277,0.206,0.392,0.412,0.344,0.617
					c-0.046,0.206-0.264,0.424-0.652,0.652c-0.49,0.288-1.104,0.481-1.84,0.581l1.013,0.75c0.672-0.125,1.303-0.361,1.895-0.708
					c0.713-0.42,1.111-0.855,1.193-1.304c0.08-0.449-0.148-0.874-0.687-1.273c-0.374-0.277-0.785-0.428-1.234-0.458
					c-0.448-0.028-0.922,0.067-1.423,0.284l-0.021-0.015c0.284-0.289,0.407-0.585,0.368-0.89c-0.038-0.304-0.232-0.588-0.583-0.848
					C176.816,78.232,176.32,78.084,175.753,78.105 M174.194,84.834l-2.23,1.311l-4.649-3.443l-1.167,0.686l5.633,4.173l3.399-1.999
					L174.194,84.834z M167.645,88.682l-1.456-1.078l1.863-1.094l-0.977-0.722l-1.861,1.095l-1.235-0.917l2-1.175l-0.981-0.727
					l-3.168,1.861l5.634,4.173l3.167-1.861l-0.984-0.729L167.645,88.682z M163.221,91.21c-0.12-0.07-0.35-0.188-0.688-0.352
					c-0.34-0.165-0.622-0.296-0.845-0.396l-4.386-1.875l-1.18,0.693l7.499,3.078l1.278-0.751l-3.763-5.272l-1.181,0.694l2.311,3.096
					C162.675,90.64,162.995,91.001,163.221,91.21 M158.313,94.167l-1.455-1.078l1.863-1.094l-0.977-0.722l-1.861,1.093l-1.236-0.915
					l2-1.176l-0.981-0.726l-3.168,1.861l5.634,4.173l3.167-1.863l-0.984-0.729L158.313,94.167z M156.188,95.417l-2.231,1.312
					l-4.647-3.444l-1.168,0.688l5.634,4.171l3.398-1.997L156.188,95.417z"/>
			</g>
		</g>
	</g>
	<polygon clip-path="url(#SVGID_2_)" fill="#F0D799" points="204.792,48.085 302.895,104.55 362,70.223 263.084,13.556 	"/>
	<polygon clip-path="url(#SVGID_2_)" fill="#E8C562" points="204.792,48.166 204.792,55.731 302.895,113.081 302.895,104.55 	"/>
	<polygon clip-path="url(#SVGID_2_)" fill="#E3B73A" points="302.894,104.55 302.894,113.081 361.999,77.333 361.999,70.121 	"/>
	<polygon clip-path="url(#SVGID_2_)" fill="#E8C468" points="25.365,155.173 109.733,203.732 160.565,174.211 75.496,125.478 	"/>
	<polygon clip-path="url(#SVGID_2_)" fill="#E3B73B" points="25.365,155.242 25.365,161.749 109.733,211.068 109.733,203.733 	"/>
	<polygon clip-path="url(#SVGID_2_)" fill="#E2A842" points="109.733,203.732 109.733,211.068 160.565,180.326 160.565,174.125 	"/>
	
		<line clip-path="url(#SVGID_2_)" fill="none" stroke="#58595B" stroke-width="0.5" stroke-miterlimit="10" stroke-dasharray="2.057,2.057" x1="44.819" y1="96.859" x2="15.705" y2="114.211"/>
	
		<line clip-path="url(#SVGID_2_)" fill="none" stroke="#58595B" stroke-width="0.5" stroke-miterlimit="10" stroke-dasharray="2.034,2.034" x1="16.991" y1="117.853" x2="51.352" y2="137.047"/>
	<path clip-path="url(#SVGID_2_)" fill="none" stroke="#58595B" stroke-width="0.5" stroke-miterlimit="10" d="M52.625,137.758
		l1.273,0.711 M14.439,114.966l-1.265,0.754l1.272,0.711 M48.616,94.597l-1.265,0.754"/>
	
		<line clip-path="url(#SVGID_2_)" fill="none" stroke="#58595B" stroke-width="0.5" stroke-miterlimit="10" stroke-dasharray="2.01,2.01" x1="146.414" y1="191.329" x2="170.396" y2="204.515"/>
	
		<line clip-path="url(#SVGID_2_)" fill="none" stroke="#58595B" stroke-width="0.5" stroke-miterlimit="10" stroke-dasharray="2.026,2.026" x1="176.687" y1="203.717" x2="346.179" y2="105.396"/>
	
		<line clip-path="url(#SVGID_2_)" fill="none" stroke="#58595B" stroke-width="0.5" stroke-miterlimit="10" stroke-dasharray="1.762,1.762" x1="345.362" y1="102.13" x2="333.16" y2="95.495"/>
	<path clip-path="url(#SVGID_2_)" fill="none" stroke="#58595B" stroke-width="0.5" stroke-miterlimit="10" d="M332.052,94.892
		l-1.11-0.603 M347.435,104.668l1.255-0.729l-1.11-0.602 M171.659,205.208l1.262,0.693l1.255-0.728 M142.626,189.248l1.262,0.693"/>
	
		<line clip-path="url(#SVGID_2_)" fill="none" stroke="#58595B" stroke-width="0.5" stroke-miterlimit="10" stroke-dasharray="2.042,2.042" x1="223.96" y1="31.872" x2="194.821" y2="15.021"/>
	
		<line clip-path="url(#SVGID_2_)" fill="none" stroke="#58595B" stroke-width="0.5" stroke-miterlimit="10" stroke-dasharray="1.983,1.983" x1="188.587" y1="15.668" x2="155.281" y2="34.692"/>
	<path clip-path="url(#SVGID_2_)" fill="none" stroke="#58595B" stroke-width="0.5" stroke-miterlimit="10" d="M154.048,35.397
		l-1.234,0.703 M193.554,14.288l-1.267-0.732l-1.234,0.705 M227.761,34.069l-1.267-0.732"/>
	<g clip-path="url(#SVGID_2_)">
		<defs>
			<rect id="SVGID_7_" x="5.83" y="9.181" width="363.619" height="206.819"/>
		</defs>
		<clipPath id="SVGID_8_">
			<use xlink:href="#SVGID_7_"  overflow="visible"/>
		</clipPath>
		<path clip-path="url(#SVGID_8_)" fill="#4D4D4F" d="M96.211,9.897l-1.287-0.713l-4.51,2.501l1.285,0.712l1.765-0.978l7.866,4.361
			l0.981-0.543l-7.867-4.361L96.211,9.897z M88.603,12.688l4.799,2.66c0.444,0.246,1.282,0.69,2.51,1.331l-0.023,0.013
			l-10.197-2.391l-1.189,0.659l9.153,5.075l0.889-0.493l-4.757-2.638c-0.677-0.375-1.407-0.757-2.188-1.146l-0.422-0.214
			l0.032-0.018l10.24,2.406l1.205-0.667l-9.153-5.073L88.603,12.688z M88.671,21.387l-2.873-1.592l2.261-1.254l-1.252-0.693
			L84.546,19.1l-2.49-1.38l2.413-1.338l-1.265-0.701l-3.395,1.881l9.153,5.075l3.394-1.882l-1.272-0.706L88.671,21.387z
			 M74.38,22.245l0.033-0.018l9.381,3.275l0.867-0.481l-5.83-5.229l0.036-0.02c0.142,0.092,0.59,0.355,1.346,0.792
			c0.758,0.437,1.321,0.757,1.692,0.963l4.528,2.511l0.943-0.523l-9.152-5.075l-1.386,0.77l5.567,4.986l-0.027,0.015l-8.947-3.114
			l-1.382,0.766l9.152,5.075l0.89-0.494l-4.452-2.467C76.65,23.426,75.563,22.85,74.38,22.245 M76.218,28.289l-2.873-1.592
			l2.262-1.254l-1.252-0.694l-2.262,1.254l-2.49-1.38l2.413-1.338l-1.265-0.701l-3.393,1.881l9.153,5.073l3.393-1.879l-1.273-0.706
			L76.218,28.289z M70.427,28.831l2.358,1.307c-0.249,0.271-0.527,0.493-0.841,0.667c-0.629,0.348-1.404,0.455-2.323,0.316
			c-0.918-0.138-1.921-0.509-3.007-1.111c-1.088-0.604-1.756-1.179-2-1.726c-0.239-0.547-0.038-0.997,0.601-1.352
			c0.484-0.267,1.143-0.442,1.978-0.526l-0.902-0.879c-0.937,0.108-1.716,0.333-2.336,0.678c-0.977,0.54-1.325,1.196-1.049,1.965
			c0.278,0.768,1.159,1.564,2.643,2.387c1.483,0.823,2.881,1.324,4.196,1.506c1.313,0.182,2.424,0.021,3.333-0.481
			c0.396-0.22,0.721-0.443,0.975-0.669c0.254-0.227,0.47-0.485,0.648-0.778l-4.598-2.55l-2.207,1.225l1.285,0.712L70.427,28.831z
			 M60.454,31.546c-0.474-0.421-0.926-0.793-1.359-1.114c0.194,0.079,0.433,0.168,0.718,0.273c0.286,0.104,1.697,0.601,4.235,1.492
			l-1.752,0.972L60.454,31.546z M58.346,29.421l-1.067,0.59l6.944,6.337l1.035-0.574l-1.955-1.731l2.298-1.273l3.137,1.076
			l1.044-0.58L58.346,29.421z M53.377,32.213l4.799,2.66c0.445,0.247,1.283,0.69,2.51,1.331l-0.022,0.013l-10.195-2.39l-1.191,0.659
			l9.152,5.073l0.889-0.491l-4.757-2.638c-0.677-0.375-1.405-0.759-2.187-1.146l-0.421-0.214l0.031-0.019l10.239,2.406l1.205-0.667
			l-9.153-5.074L53.377,32.213z M48.309,38.277c-0.474-0.421-0.927-0.792-1.36-1.113c0.194,0.079,0.433,0.168,0.719,0.273
			c0.285,0.104,1.697,0.601,4.235,1.492l-1.751,0.972L48.309,38.277z M46.2,36.153l-1.068,0.592l6.945,6.337l1.035-0.574
			l-1.955-1.731l2.298-1.275l3.136,1.078L57.637,40L46.2,36.153z M38.289,42.25l0.033-0.018l9.381,3.274l0.866-0.481l-5.828-5.229
			l0.036-0.02c0.142,0.092,0.59,0.355,1.347,0.792c0.758,0.437,1.321,0.757,1.692,0.962l4.529,2.511l0.943-0.523l-9.152-5.074
			l-1.386,0.768l5.567,4.988l-0.028,0.016l-8.946-3.114l-1.382,0.765l9.153,5.075l0.89-0.494l-4.452-2.467
			C40.559,43.432,39.471,42.855,38.289,42.25 M31.949,44.091l-0.979,0.544l9.152,5.073l0.98-0.543L31.949,44.091z M28.489,47.412
			c0.454-0.252,0.904-0.374,1.351-0.367s0.927,0.153,1.443,0.438c0.514,0.286,0.793,0.556,0.838,0.811
			c0.044,0.256-0.158,0.509-0.608,0.758l-0.679,0.376l-2.992-1.658L28.489,47.412z M33.039,49.58l5.094,1.231l1.118-0.62
			l-5.745-1.303c0.292-0.701-0.129-1.367-1.267-1.997c-0.9-0.5-1.756-0.767-2.572-0.803c-0.813-0.037-1.606,0.158-2.38,0.587
			l-1.692,0.938l9.153,5.073l0.981-0.544l-3.658-2.027L33.039,49.58z M21.35,49.813c-0.897,0.497-1.187,1.104-0.866,1.822
			c0.319,0.715,1.236,1.493,2.748,2.332c1.511,0.837,2.918,1.349,4.223,1.538c1.307,0.185,2.412,0.028,3.313-0.472
			c0.902-0.501,1.183-1.115,0.842-1.845c-0.338-0.729-1.252-1.507-2.741-2.331c-1.488-0.826-2.89-1.33-4.202-1.516
			C23.354,49.157,22.249,49.315,21.35,49.813 M27.824,51.437c2.291,1.27,2.848,2.231,1.671,2.883
			c-0.584,0.323-1.317,0.407-2.198,0.25c-0.882-0.157-1.885-0.547-3.01-1.17c-1.124-0.623-1.826-1.178-2.104-1.667
			c-0.278-0.489-0.125-0.895,0.458-1.218c0.583-0.323,1.311-0.407,2.182-0.252C25.698,50.42,26.697,50.813,27.824,51.437
			 M18.178,54.979c-0.474-0.421-0.927-0.792-1.36-1.112c0.194,0.077,0.433,0.168,0.718,0.271c0.286,0.105,1.697,0.602,4.236,1.493
			l-1.751,0.971L18.178,54.979z M16.07,52.854l-1.068,0.592l6.945,6.337l1.035-0.574l-1.955-1.731l2.299-1.275l3.136,1.078
			l1.045-0.58L16.07,52.854z M8.159,58.952l0.032-0.018l9.382,3.273l0.866-0.48l-5.828-5.229l0.037-0.02
			c0.141,0.092,0.59,0.355,1.346,0.792c0.758,0.437,1.321,0.757,1.692,0.963l4.528,2.509l0.944-0.522l-9.153-5.075l-1.386,0.769
			l5.567,4.988l-0.028,0.015l-8.946-3.114L5.829,58.57l9.153,5.074l0.89-0.494l-4.452-2.467
			C10.429,60.133,9.341,59.556,8.159,58.952"/>
	</g>
	<polygon clip-path="url(#SVGID_2_)" fill="#4D4D4F" points="12.993,53.188 15.616,51.735 15.901,51.893 13.278,53.347 	"/>
	<g clip-path="url(#SVGID_2_)">
		<defs>
			<rect id="SVGID_9_" x="5.83" y="9.181" width="363.619" height="206.819"/>
		</defs>
		<clipPath id="SVGID_10_">
			<use xlink:href="#SVGID_9_"  overflow="visible"/>
		</clipPath>
		<path clip-path="url(#SVGID_10_)" fill="#404041" d="M365.578,60.2c-0.207-0.337-0.33-0.578-0.368-0.719
			c-0.039-0.142-0.031-0.269,0.024-0.382c0.06-0.108,0.175-0.212,0.346-0.315c0.246-0.148,0.522-0.221,0.824-0.217
			s0.602,0.091,0.896,0.26c0.392,0.227,0.721,0.559,0.991,0.998l1.158-0.344c-0.274-0.476-0.686-0.875-1.24-1.194
			c-0.551-0.319-1.151-0.484-1.797-0.494c-0.646-0.011-1.238,0.146-1.776,0.469c-0.422,0.255-0.683,0.535-0.779,0.84
			c-0.097,0.305-0.003,0.677,0.275,1.117c0.279,0.439,0.415,0.754,0.409,0.945c-0.005,0.19-0.139,0.362-0.396,0.518
			c-0.257,0.154-0.553,0.227-0.886,0.217c-0.332-0.01-0.679-0.119-1.039-0.327c-0.542-0.312-0.939-0.718-1.195-1.215l-0.998,0.599
			c0.183,0.371,0.599,0.743,1.243,1.115c0.645,0.372,1.312,0.564,2.001,0.58c0.687,0.012,1.315-0.151,1.885-0.493
			c0.567-0.342,0.823-0.718,0.77-1.129C365.901,60.814,365.786,60.539,365.578,60.2 M362.135,55.938
			c0.43,0.248,0.667,0.479,0.709,0.694c0.045,0.217-0.113,0.433-0.474,0.649c-0.363,0.218-0.729,0.323-1.104,0.316
			c-0.374-0.009-0.775-0.133-1.201-0.379l-0.645-0.372l2.102-1.263L362.135,55.938z M359.467,57.898l-1.209,2.329l1.058,0.612
			l1.236-2.635c1.079,0.218,2.017,0.089,2.815-0.391c0.633-0.38,0.927-0.764,0.88-1.154c-0.045-0.391-0.433-0.796-1.163-1.219
			l-1.602-0.925l-6.429,3.862l0.929,0.536l2.568-1.543L359.467,57.898z M352.434,55.812l2.018-1.212l2.141,1.235l0.879-0.527
			l-2.141-1.237l1.75-1.049l2.284,1.318l0.889-0.534l-3.211-1.854l-6.43,3.862l3.213,1.854l0.893-0.537L352.434,55.812z
			 M350.922,52.947l-1.657,0.995c-0.434-0.149-0.799-0.311-1.094-0.481c-0.596-0.345-0.847-0.731-0.753-1.161
			c0.094-0.429,0.522-0.875,1.285-1.332c0.764-0.459,1.54-0.717,2.325-0.775c0.784-0.053,1.478,0.094,2.081,0.442
			c0.459,0.264,0.799,0.604,1.026,1.017l1.196-0.338c-0.274-0.466-0.704-0.868-1.292-1.207c-0.924-0.535-1.941-0.775-3.052-0.728
			c-1.108,0.047-2.185,0.383-3.228,1.01c-1.044,0.627-1.619,1.247-1.728,1.863c-0.111,0.617,0.264,1.173,1.125,1.669
			c0.374,0.216,0.745,0.397,1.113,0.547c0.368,0.148,0.781,0.283,1.238,0.4l3.229-1.94l-2.091-1.206l-0.902,0.543L350.922,52.947z
			 M345.667,47.813c0.57-0.184,1.064-0.361,1.489-0.535c-0.092,0.085-0.197,0.19-0.316,0.317c-0.122,0.127-0.688,0.754-1.706,1.884
			l-1.657-0.957L345.667,47.813z M348.57,47.03l-1.011-0.584l-8.577,2.652l0.979,0.565l2.334-0.751l2.178,1.256l-1.219,1.397
			l0.99,0.571L348.57,47.03z M343.809,44.311l-3.371,2.025c-0.312,0.188-0.871,0.544-1.672,1.066l-0.022-0.013l2.312-4.668
			l-1.127-0.651l-6.429,3.863l0.843,0.485l3.34-2.007c0.475-0.286,0.955-0.596,1.439-0.931l0.266-0.181l0.029,0.017l-2.324,4.689
			l1.139,0.658l6.428-3.862L343.809,44.311z M334.169,41.176c0.57-0.184,1.065-0.361,1.489-0.535
			c-0.09,0.085-0.196,0.191-0.315,0.317c-0.122,0.127-0.688,0.754-1.705,1.884l-1.658-0.957L334.169,41.176z M337.073,40.392
			l-1.01-0.583l-8.577,2.651l0.979,0.565l2.334-0.752l2.176,1.255l-1.216,1.398l0.989,0.571L337.073,40.392z M327.04,35.877
			l0.029,0.017l-3.725,4.176l0.821,0.473l7.064-2.235l0.034,0.02c-0.119,0.059-0.456,0.245-1.013,0.564
			c-0.559,0.318-0.966,0.554-1.228,0.711l-3.179,1.91l0.894,0.517l6.428-3.863l-1.311-0.758l-6.739,2.137l-0.026-0.016l3.539-3.983
			l-1.309-0.756l-6.428,3.863l0.843,0.487l3.126-1.879C325.558,36.843,326.283,36.381,327.04,35.877 M315.975,34.762l2.018-1.212
			l2.143,1.237l0.879-0.529l-2.142-1.237l1.748-1.05l2.284,1.318l0.889-0.535l-3.212-1.854l-6.428,3.863l3.212,1.854l0.893-0.538
			L315.975,34.762z M318.229,29.543l-3.37,2.025c-0.312,0.188-0.872,0.543-1.674,1.065l-0.021-0.011l2.311-4.67l-1.128-0.65
			l-6.428,3.862l0.843,0.487l3.342-2.008c0.475-0.286,0.955-0.595,1.437-0.931l0.266-0.181l0.031,0.018l-2.326,4.688l1.14,0.658
			l6.428-3.863L318.229,29.543z M312.85,26.436l-0.928-0.536l-6.431,3.864l0.93,0.536L312.85,26.436z M305.413,28.657l-2.406-1.388
			l5.529-3.322l-0.928-0.536l-6.428,3.862l3.333,1.924L305.413,28.657z M303.537,22.125l0.903-0.543l-4.27-2.464l-0.902,0.542
			l1.671,0.965l-5.525,3.32l0.928,0.536l5.525-3.321L303.537,22.125z M295.445,19.709c-0.208-0.337-0.33-0.578-0.369-0.719
			c-0.038-0.142-0.03-0.269,0.023-0.384c0.062-0.106,0.175-0.211,0.346-0.313c0.247-0.148,0.523-0.221,0.827-0.215
			c0.302,0.004,0.601,0.091,0.895,0.26c0.392,0.226,0.721,0.559,0.989,0.997l1.157-0.344c-0.273-0.476-0.686-0.875-1.238-1.194
			c-0.551-0.319-1.152-0.483-1.798-0.494c-0.645-0.01-1.237,0.147-1.774,0.47c-0.423,0.253-0.685,0.533-0.78,0.838
			s-0.004,0.677,0.274,1.117c0.28,0.439,0.416,0.754,0.41,0.945c-0.006,0.19-0.139,0.364-0.396,0.518
			c-0.256,0.155-0.553,0.227-0.886,0.217c-0.333-0.01-0.68-0.119-1.04-0.328c-0.541-0.312-0.938-0.717-1.194-1.213l-0.998,0.599
			c0.185,0.371,0.598,0.742,1.243,1.114c0.646,0.372,1.312,0.565,2,0.578c0.688,0.014,1.317-0.148,1.887-0.491
			c0.567-0.34,0.823-0.717,0.77-1.129C295.769,20.323,295.654,20.048,295.445,19.709 M292.003,15.448
			c0.428,0.248,0.666,0.48,0.711,0.695c0.043,0.215-0.115,0.433-0.476,0.649c-0.362,0.217-0.73,0.322-1.105,0.315
			c-0.374-0.008-0.775-0.134-1.201-0.379l-0.643-0.371l2.101-1.263L292.003,15.448z M289.334,17.407l-1.209,2.329l1.058,0.61
			l1.237-2.635c1.079,0.22,2.017,0.091,2.816-0.389c0.632-0.379,0.925-0.764,0.88-1.154c-0.044-0.391-0.432-0.796-1.163-1.218
			l-1.603-0.925l-6.428,3.862l0.928,0.536l2.568-1.543L289.334,17.407z M289.852,13.159l-0.928-0.536l-6.429,3.862l0.928,0.536
			L289.852,13.159z M283.96,14.223l0.894-0.538l-2.141-1.236l2.007-1.206l2.284,1.318l0.889-0.535l-3.204-1.849l-6.428,3.862
			l0.919,0.53l2.638-1.584L283.96,14.223z"/>
		<path clip-path="url(#SVGID_10_)" fill="#404041" d="M93.556,213.978c-0.168-0.292-0.263-0.5-0.289-0.621
			c-0.026-0.121-0.007-0.228,0.053-0.325c0.066-0.088,0.182-0.175,0.35-0.256c0.246-0.12,0.511-0.173,0.795-0.162
			c0.286,0.011,0.56,0.094,0.823,0.246c0.351,0.202,0.635,0.494,0.854,0.872l1.117-0.26c-0.218-0.412-0.577-0.76-1.072-1.047
			c-0.494-0.286-1.045-0.441-1.653-0.467c-0.607-0.027-1.178,0.091-1.71,0.35c-0.419,0.205-0.687,0.436-0.801,0.693
			c-0.116,0.256-0.06,0.574,0.168,0.956c0.228,0.379,0.33,0.649,0.31,0.812c-0.022,0.161-0.16,0.304-0.415,0.428
			c-0.254,0.125-0.54,0.178-0.852,0.161c-0.314-0.019-0.631-0.121-0.954-0.307c-0.483-0.28-0.828-0.634-1.029-1.063l-0.986,0.481
			c0.141,0.321,0.502,0.647,1.081,0.98c0.577,0.333,1.189,0.515,1.836,0.546c0.648,0.029,1.252-0.093,1.815-0.367
			c0.564-0.276,0.836-0.588,0.817-0.939C93.81,214.508,93.724,214.27,93.556,213.978 M90.656,210.268
			c0.384,0.221,0.588,0.424,0.613,0.609c0.024,0.185-0.143,0.364-0.501,0.539c-0.357,0.173-0.713,0.253-1.065,0.236
			c-0.353-0.016-0.719-0.133-1.101-0.354l-0.577-0.333l2.081-1.015L90.656,210.268z M87.984,211.859l-1.327,1.944l0.947,0.547
			l1.378-2.204c0.999,0.215,1.893,0.131,2.684-0.255c0.626-0.305,0.933-0.624,0.923-0.956c-0.01-0.333-0.343-0.688-0.998-1.066
			l-1.434-0.827l-6.368,3.105l0.831,0.48l2.544-1.242L87.984,211.859z M81.527,209.898l1.998-0.974l1.917,1.107l0.872-0.425
			l-1.917-1.107l1.732-0.846l2.045,1.181l0.881-0.429l-2.877-1.662l-6.368,3.107l2.876,1.661l0.886-0.432L81.527,209.898z
			 M79.823,208.91l-2.153-1.244l5.479-2.671l-0.832-0.48l-6.368,3.105l2.985,1.724L79.823,208.91z M75.961,206.68l-2.154-1.243
			l5.478-2.671l-0.83-0.48l-6.369,3.107l2.983,1.721L75.961,206.68z M75.071,200.228c-0.762-0.441-1.629-0.643-2.604-0.606
			c-0.974,0.035-1.986,0.309-3.038,0.823c-1.052,0.512-1.658,1.027-1.819,1.542c-0.158,0.517,0.145,0.995,0.909,1.438
			c0.763,0.441,1.64,0.641,2.63,0.598c0.988-0.042,2.001-0.315,3.038-0.82c1.035-0.505,1.632-1.017,1.791-1.537
			C76.134,201.147,75.833,200.667,75.071,200.228 M73.302,202.691c-1.594,0.777-2.89,0.877-3.888,0.302
			c-0.494-0.286-0.667-0.6-0.516-0.946c0.15-0.343,0.619-0.706,1.4-1.087c0.783-0.382,1.502-0.598,2.162-0.646
			c0.659-0.051,1.235,0.068,1.729,0.354c0.495,0.287,0.667,0.599,0.517,0.939C74.553,201.946,74.085,202.309,73.302,202.691
			 M68.79,197.643c0.385,0.223,0.59,0.425,0.613,0.609c0.025,0.185-0.141,0.364-0.5,0.539c-0.357,0.175-0.713,0.255-1.064,0.238
			c-0.354-0.015-0.721-0.134-1.102-0.355l-0.576-0.332l2.08-1.015L68.79,197.643z M66.118,199.234l-1.326,1.945l0.947,0.547
			l1.378-2.204c1,0.216,1.892,0.13,2.683-0.255c0.626-0.306,0.935-0.624,0.923-0.957c-0.009-0.333-0.343-0.687-0.997-1.065
			l-1.435-0.829l-6.368,3.105l0.831,0.48l2.545-1.241L66.118,199.234z M66.615,196.403l0.895-0.437l-3.824-2.208l-0.895,0.437
			l1.497,0.865l-5.474,2.669l0.832,0.48l5.473-2.669L66.615,196.403z M62.152,192.872l-3.339,1.629
			c-0.311,0.151-0.865,0.438-1.663,0.861l-0.02-0.013l2.554-3.9l-1.009-0.583l-6.368,3.107l0.755,0.435l3.311-1.615
			c0.471-0.229,0.946-0.48,1.43-0.751l0.265-0.144l0.027,0.015l-2.57,3.917l1.02,0.589l6.369-3.107L62.152,192.872z M55.292,188.808
			c-0.76-0.439-1.629-0.641-2.604-0.604c-0.973,0.035-1.985,0.309-3.037,0.823c-1.052,0.512-1.658,1.026-1.821,1.542
			c-0.158,0.515,0.144,0.995,0.909,1.436c0.764,0.441,1.64,0.641,2.631,0.599c0.988-0.042,2.002-0.315,3.038-0.82
			c1.034-0.505,1.632-1.017,1.79-1.537C56.355,189.728,56.055,189.248,55.292,188.808 M53.522,191.271
			c-1.594,0.778-2.889,0.879-3.887,0.302c-0.495-0.285-0.667-0.599-0.516-0.944c0.15-0.343,0.618-0.707,1.399-1.087
			c0.783-0.382,1.503-0.598,2.162-0.646c0.659-0.05,1.234,0.068,1.729,0.354c0.495,0.286,0.667,0.599,0.516,0.938
			C54.775,190.528,54.305,190.889,53.522,191.271 M50.818,187.592l1.168-0.249c-0.164-0.386-0.509-0.73-1.032-1.033
			c-0.48-0.286-1.04-0.467-1.679-0.55c-0.641-0.082-1.307-0.058-2.001,0.073c-0.694,0.13-1.366,0.355-2.015,0.677
			c-1.053,0.515-1.663,1.023-1.829,1.527c-0.17,0.505,0.121,0.973,0.87,1.405c0.51,0.294,1.055,0.51,1.636,0.647l0.896-0.438
			c-0.677-0.188-1.191-0.383-1.542-0.585c-0.5-0.29-0.681-0.607-0.54-0.954c0.139-0.347,0.591-0.706,1.354-1.078
			c0.763-0.373,1.493-0.583,2.188-0.631c0.696-0.049,1.282,0.064,1.76,0.34C50.379,186.932,50.635,187.214,50.818,187.592
			 M42.583,182.513c0.384,0.221,0.589,0.424,0.614,0.609c0.023,0.183-0.143,0.362-0.501,0.537c-0.357,0.175-0.712,0.255-1.064,0.238
			c-0.354-0.016-0.719-0.134-1.101-0.354l-0.577-0.333l2.08-1.014L42.583,182.513z M39.911,184.104l-1.327,1.944l0.947,0.547
			l1.379-2.204c0.999,0.215,1.893,0.131,2.683-0.255c0.626-0.305,0.934-0.624,0.923-0.956c-0.01-0.334-0.343-0.688-0.999-1.066
			l-1.433-0.828l-6.369,3.106l0.83,0.479l2.545-1.24L39.911,184.104z M38.701,179.229c-0.762-0.439-1.63-0.641-2.605-0.604
			c-0.974,0.035-1.986,0.31-3.038,0.822c-1.052,0.513-1.658,1.027-1.818,1.543c-0.158,0.515,0.144,0.995,0.908,1.436
			c0.763,0.44,1.64,0.641,2.63,0.599c0.989-0.042,2.001-0.316,3.038-0.821c1.035-0.505,1.632-1.018,1.791-1.535
			C39.763,180.148,39.462,179.668,38.701,179.229 M36.931,181.692c-1.594,0.778-2.89,0.879-3.888,0.302
			c-0.494-0.286-0.667-0.601-0.516-0.945c0.15-0.343,0.619-0.707,1.4-1.087c0.783-0.382,1.502-0.598,2.162-0.648
			c0.66-0.049,1.235,0.07,1.729,0.355c0.495,0.286,0.667,0.598,0.517,0.938C38.182,180.949,37.714,181.31,36.931,181.692
			 M30.319,178.777c-1.03,0.502-1.936,0.527-2.719,0.074c-0.405-0.233-0.579-0.466-0.524-0.701c0.055-0.234,0.345-0.479,0.867-0.733
			l4.032-1.966l-0.835-0.483l-4.104,2.001c-0.733,0.358-1.133,0.739-1.201,1.146c-0.067,0.406,0.217,0.791,0.849,1.156
			c0.619,0.367,1.325,0.553,2.118,0.556s1.542-0.171,2.247-0.519l4.124-2.011l-0.832-0.48L30.319,178.777z M28.708,174.374
			c0.157-0.518-0.144-0.998-0.906-1.438c-0.761-0.439-1.629-0.641-2.604-0.604c-0.974,0.035-1.987,0.309-3.038,0.821
			c-1.052,0.514-1.659,1.027-1.82,1.542c-0.157,0.518,0.146,0.997,0.915,1.44l0.136,0.079l-0.465,1.252l1.121,0.646l0.423-1.503
			c0.664,0.154,1.378,0.17,2.138,0.05c0.763-0.121,1.532-0.371,2.31-0.75C27.952,175.407,28.55,174.895,28.708,174.374
			 M26.033,175.4c-1.595,0.778-2.891,0.878-3.889,0.302c-0.495-0.286-0.666-0.601-0.516-0.945c0.151-0.343,0.619-0.707,1.399-1.089
			c0.784-0.382,1.503-0.596,2.163-0.646c0.658-0.049,1.234,0.07,1.728,0.355c0.496,0.286,0.667,0.598,0.517,0.939
			C27.284,174.657,26.816,175.018,26.033,175.4 M24.235,170.981l-0.832-0.48l-6.368,3.105l0.831,0.48L24.235,170.981z
			 M17.048,172.667l-2.153-1.243l5.478-2.672l-0.831-0.481l-6.368,3.107l2.984,1.723L17.048,172.667z"/>
	</g>
	<polygon clip-path="url(#SVGID_2_)" fill="#F6E7C7" points="228.654,43.327 284.753,76.02 321.896,54.16 266.184,21.661 	"/>
	<polygon clip-path="url(#SVGID_2_)" fill="none" stroke="#FFFFFF" stroke-width="0.5" stroke-miterlimit="10" points="
		228.654,43.327 284.753,76.02 321.896,54.16 266.184,21.661 	"/>
	<polygon clip-path="url(#SVGID_2_)" fill="#F0D9A1" points="51.767,151.371 94.915,176.515 123.481,159.703 80.632,134.707 	"/>
	<polygon clip-path="url(#SVGID_2_)" fill="none" stroke="#FFFFFF" stroke-width="0.5" stroke-miterlimit="10" points="
		51.767,151.371 94.915,176.515 123.481,159.703 80.632,134.707 	"/>
</g>
</svg>
