<?xml version="1.0" encoding="utf-8"?>
<!-- Generator: Adobe Illustrator 21.0.2, SVG Export Plug-In . SVG Version: 6.00 Build 0)  -->
<svg version="1.1" id="Layer_1" xmlns="http://www.w3.org/2000/svg" xmlns:xlink="http://www.w3.org/1999/xlink" x="0px" y="0px"
	 viewBox="0 0 100 100" style="enable-background:new 0 0 100 100;" xml:space="preserve">
<style type="text/css">
	.st0{fill:#FFFFFF;}
</style>
<g>
	<path class="st0" d="M77,85.7c-3.7,2.6-7.8,4.7-12.1,6.1c-4.4,1.4-9.1,2.1-14.2,2.1c-6.7,0-12.8-1.2-18.3-3.5
		C26.7,88,22,84.8,18,80.8c-4-4-7.1-8.8-9.3-14.2c-2.2-5.4-3.3-11.2-3.3-17.3V49c0-6.1,1.1-11.9,3.3-17.3c2.2-5.4,5.4-10.2,9.4-14.2
		s8.8-7.3,14.4-9.7s11.6-3.6,18.3-3.6s12.8,1.2,18.3,3.5c5.5,2.4,10.3,5.6,14.2,9.6c4,4,7.1,8.8,9.3,14.2S96,42.7,96,48.8V49
		c0,5-0.7,9.7-2.2,14.2c-1.5,4.5-3.7,8.7-6.6,12.4l9.9,8.4L87.4,95L77,85.7z M50.9,79.9c2.9,0,5.6-0.4,8-1.1
		c2.5-0.7,4.7-1.8,6.8-3.1L50.8,63l9.8-11.1l14.9,13.6c2.9-4.5,4.4-9.9,4.4-16.2V49c0-4.2-0.7-8.2-2.2-11.9s-3.5-7-6-9.8
		c-2.6-2.8-5.7-5-9.3-6.6c-3.6-1.6-7.6-2.5-11.8-2.5s-8.2,0.8-11.8,2.4c-3.6,1.6-6.6,3.8-9.2,6.6s-4.5,6-6,9.7
		c-1.4,3.7-2.2,7.7-2.2,11.9V49c0,4.2,0.7,8.2,2.2,12c1.4,3.8,3.5,7,6.1,9.8c2.6,2.8,5.7,5,9.3,6.6C42.6,79.1,46.6,79.9,50.9,79.9z"
		/>
</g>
</svg>
