<?xml version="1.0" encoding="utf-8"?>
<!-- Generator: Adobe Illustrator 21.0.2, SVG Export Plug-In . SVG Version: 6.00 Build 0)  -->
<svg version="1.1" id="Layer_1" xmlns="http://www.w3.org/2000/svg" xmlns:xlink="http://www.w3.org/1999/xlink" x="0px" y="0px"
	 viewBox="0 0 150 43" style="enable-background:new 0 0 150 43;" xml:space="preserve">
<g>
	<path d="M21.1,37.2c-0.4,0-0.7,0.1-1.1,0.1c-0.4,0-0.9,0-1.6,0c-4.9,0-9-1.7-12.4-5.1s-5-7.7-5-12.8c0-5.2,1.7-9.5,5-12.9
		s7.6-5.1,12.7-5.1c5.1,0,9.4,1.7,12.8,5.1s5.1,7.7,5.1,12.9c0,3.9-1,7.3-2.9,10.2s-4.7,5.1-8.3,6.6l2.3,4.7H23L21.1,37.2z
		 M19.3,33.2l-2.1-4.4H22l1.7,3.6c2.7-1.1,4.8-2.7,6.3-5s2.2-5,2.2-8.1c0-4-1.3-7.4-3.8-10s-5.7-4-9.6-4s-7,1.3-9.6,4s-3.8,6-3.8,10
		c0,4,1.2,7.3,3.7,9.9s5.7,3.9,9.5,3.9H19.3z"/>
	<path d="M40.9,31.2l2.5-3.7c2.4,1.9,4.9,3.3,7.6,4.3c2.6,1,5.2,1.5,7.8,1.5c3.2,0,5.7-0.7,7.7-2c2-1.3,3-3.1,3-5.2
		c0-1.7-0.7-3.1-2.1-4.1s-3.4-1.7-5.9-1.9c-0.6-0.1-1.5-0.1-2.6-0.2c-5.6-0.4-9.5-1.1-11.5-2c-1.6-0.8-2.8-1.8-3.6-3
		c-0.8-1.2-1.2-2.6-1.2-4.1c0-2.8,1.2-5,3.7-6.8c2.5-1.8,5.7-2.7,9.6-2.7c2.9,0,5.7,0.5,8.5,1.4C66.9,3.7,69.5,5.1,72,7l-2.5,3.5
		c-2.1-1.7-4.3-3-6.7-3.8c-2.3-0.9-4.7-1.3-7.2-1.3c-2.6,0-4.7,0.5-6.4,1.5c-1.7,1-2.5,2.3-2.5,3.8c0,0.6,0.1,1.1,0.4,1.6
		c0.3,0.5,0.7,1,1.2,1.4c1.4,1.1,4.4,1.7,9.1,2c2.2,0.1,3.8,0.3,5,0.4c3.5,0.4,6.2,1.5,8.3,3.4c2,1.8,3,4.1,3,6.8
		c0,3.2-1.4,5.8-4.2,7.9c-2.8,2.1-6.4,3.1-10.9,3.1c-3.4,0-6.6-0.5-9.5-1.5C46.3,34.8,43.5,33.3,40.9,31.2z"/>
	<path d="M97.1,37.3c-5.1,0-9.4-1.7-12.7-5.1s-5-7.7-5-12.9c0-5.2,1.7-9.5,5-12.9S92,1.4,97.1,1.4c5.1,0,9.4,1.7,12.8,5.1
		c3.4,3.4,5.1,7.7,5.1,12.9s-1.7,9.5-5,12.9S102.2,37.3,97.1,37.3z M97.1,33.3c3.8,0,7-1.3,9.6-3.9c2.5-2.6,3.8-6,3.8-10
		c0-4.1-1.3-7.4-3.8-10c-2.5-2.6-5.7-3.9-9.6-3.9c-3.8,0-7,1.3-9.6,4c-2.5,2.6-3.8,6-3.8,10s1.3,7.4,3.8,10
		C90,32,93.2,33.3,97.1,33.3z"/>
	<path d="M122.4,36.4V2.1h4.3v30.3H149v3.9H122.4z"/>
</g>
</svg>
