<?xml version="1.0" encoding="utf-8"?>
<!-- Generator: Adobe Illustrator 21.0.2, SVG Export Plug-In . SVG Version: 6.00 Build 0)  -->
<svg version="1.1" id="Layer_1" xmlns="http://www.w3.org/2000/svg" xmlns:xlink="http://www.w3.org/1999/xlink" x="0px" y="0px"
	 viewBox="0 0 217 164" style="enable-background:new 0 0 217 164;" xml:space="preserve">
<style type="text/css">
	.st0{fill:url(#SVGID_1_);}
	.st1{fill:url(#SVGID_2_);}
</style>
<g>
	<g>
		<path d="M18.3,133.6c-0.2,0-0.4,0-0.7,0.1c-0.2,0-0.6,0-1,0c-3.1,0-5.7-1.1-7.7-3.2c-2.1-2.1-3.1-4.8-3.1-8c0-3.3,1-5.9,3.1-8.1
			c2.1-2.1,4.7-3.2,7.9-3.2c3.2,0,5.9,1.1,8,3.2c2.1,2.1,3.2,4.8,3.2,8.1c0,2.4-0.6,4.6-1.8,6.4c-1.2,1.8-2.9,3.2-5.2,4.1l1.4,2.9
			h-3L18.3,133.6z M17.1,131.2l-1.3-2.8h3l1.1,2.3c1.7-0.7,3-1.7,3.9-3.2c0.9-1.4,1.4-3.1,1.4-5c0-2.5-0.8-4.6-2.4-6.3
			c-1.6-1.7-3.6-2.5-6-2.5c-2.4,0-4.4,0.8-6,2.5c-1.6,1.6-2.4,3.7-2.4,6.3c0,2.5,0.8,4.6,2.3,6.2c1.6,1.6,3.5,2.5,5.9,2.5H17.1z"/>
		<path d="M37.9,111.7v13.9c0,2.2,0.4,3.7,1.3,4.5c0.8,0.8,2.5,1.1,4.9,1.1c2.4,0,4.1-0.4,4.9-1.1c0.8-0.8,1.2-2.2,1.2-4.5v-13.9
			h2.7v14.6c0,2.6-0.7,4.5-2.1,5.7c-1.4,1.1-3.6,1.7-6.8,1.7c-3.1,0-5.4-0.6-6.8-1.7c-1.4-1.1-2.1-3-2.1-5.7v-14.6H37.9z"/>
		<path d="M58,133.2l10.5-21.4h2.2l10.6,21.4h-2.9l-2.9-5.8H63.7l-2.8,5.8H58z M64.9,124.9h9.4l-4.7-9.5L64.9,124.9z"/>
		<path d="M96.9,111.7c3.4,0,6.1,1,8.2,3c2.1,2,3.1,4.6,3.1,7.8c0,3.2-1,5.8-3,7.7c-2,1.9-4.8,2.9-8.2,2.9h-9.2v-21.4H96.9z
			 M96.9,114.2h-6.5v16.5h6.5c2.6,0,4.7-0.7,6.2-2.2c1.5-1.5,2.3-3.5,2.3-6c0-2.5-0.8-4.5-2.3-6C101.6,114.9,99.5,114.2,96.9,114.2z
			"/>
		<path d="M115.9,133.2v-21.4h12.3c2.1,0,3.7,0.5,4.9,1.6c1.2,1.1,1.8,2.5,1.8,4.4c0,1.6-0.5,2.9-1.4,4c-0.9,1.1-2.2,1.8-3.7,2.1
			l5.4,9.4h-3l-5.4-9.4h-8.3v9.4H115.9z M118.6,121.3h9.5c1.3,0,2.4-0.3,3.1-0.9c0.7-0.6,1-1.5,1-2.6c0-1.1-0.3-2-1-2.6
			c-0.7-0.6-1.7-0.9-2.9-0.9h-9.6V121.3z"/>
		<path d="M138.2,133.2l10.5-21.4h2.2l10.6,21.4h-2.9l-2.9-5.8h-11.8l-2.8,5.8H138.2z M145.2,124.9h9.4l-4.7-9.5L145.2,124.9z"/>
		<path d="M168,133.2v-21.4h1.4l13.9,16v-16h2.7v21.4h-1.4l-14-16v16H168z"/>
		<path d="M199.2,133.2v-19h-9v-2.5h20.7v2.5h-9v19H199.2z"/>
	</g>
	<g>
		<path d="M64.4,156c0.1-0.1,0.3-0.1,0.4,0c0.7,0.6,1.9,1.2,3.1,1.2c0.8,0,1.6-0.2,2.1-0.6c0.5-0.4,0.8-0.9,0.8-1.4
			c0-0.5-0.3-0.9-0.8-1.3c-0.5-0.3-1.3-0.6-2.2-0.8h0c-0.9-0.2-1.6-0.4-2.2-0.8c-0.6-0.4-1-0.9-1-1.6c0-0.7,0.4-1.3,1-1.8
			c0.6-0.4,1.4-0.7,2.3-0.7c1.2,0,2.2,0.6,2.9,1.1c0.1,0.1,0.2,0.3,0.1,0.4c-0.1,0.1-0.3,0.2-0.4,0.1c-0.7-0.5-1.5-1-2.6-1
			c-0.8,0-1.4,0.2-1.9,0.6c-0.5,0.3-0.7,0.8-0.7,1.3c0,0.5,0.2,0.8,0.7,1.1c0.5,0.3,1.2,0.5,2,0.7h0c0.9,0.2,1.8,0.4,2.4,0.9
			c0.6,0.4,1,1,1,1.8c0,0.7-0.4,1.4-1.1,1.9c-0.6,0.5-1.5,0.7-2.4,0.7c-1.4,0-2.7-0.7-3.5-1.4C64.4,156.3,64.3,156.1,64.4,156z"/>
		<path d="M78.6,148.2c2.5,0,4.5,2.1,4.5,4.8c0,2.6-2,4.8-4.5,4.8c-2.5,0-4.5-2.1-4.5-4.8C74.1,150.4,76,148.2,78.6,148.2z
			 M78.6,157.1c2.1,0,3.8-1.8,3.8-4.1c0-2.3-1.8-4.1-3.8-4.1c-2.1,0-3.9,1.8-3.9,4.1C74.7,155.3,76.4,157.1,78.6,157.1z"/>
		<path d="M86.8,157.8L86.8,157.8c-0.2,0-0.3-0.1-0.3-0.3v-8.7c0-0.2,0.1-0.3,0.3-0.3c0.2,0,0.3,0.1,0.3,0.3v8.4h4.5
			c0.2,0,0.3,0.1,0.3,0.3c0,0.2-0.1,0.3-0.3,0.3H86.8z"/>
		<path d="M94.4,148.7c0-0.2,0.1-0.3,0.3-0.3c0.2,0,0.3,0.1,0.3,0.3v5.3c0,1.7,1.4,3.1,3.1,3.1c1.7,0,3.1-1.4,3.1-3.1v-5.3
			c0-0.2,0.1-0.3,0.3-0.3c0.2,0,0.3,0.1,0.3,0.3v5.3c0,2.1-1.7,3.8-3.8,3.8c-2.1,0-3.8-1.7-3.8-3.8V148.7z"/>
		<path d="M107.9,149h-2.8c-0.2,0-0.3-0.1-0.3-0.3c0-0.2,0.1-0.3,0.3-0.3h6.3c0.2,0,0.3,0.1,0.3,0.3c0,0.2-0.1,0.3-0.3,0.3h-2.8v8.4
			c0,0.2-0.1,0.3-0.3,0.3c-0.2,0-0.3-0.1-0.3-0.3V149z"/>
		<path d="M114.9,148.7c0-0.2,0.1-0.3,0.3-0.3c0.2,0,0.3,0.1,0.3,0.3v8.7c0,0.2-0.1,0.3-0.3,0.3c-0.2,0-0.3-0.1-0.3-0.3V148.7z"/>
		<path d="M123.7,148.2c2.5,0,4.5,2.1,4.5,4.8c0,2.6-2,4.8-4.5,4.8c-2.5,0-4.5-2.1-4.5-4.8C119.2,150.4,121.2,148.2,123.7,148.2z
			 M123.7,157.1c2.1,0,3.8-1.8,3.8-4.1c0-2.3-1.8-4.1-3.8-4.1c-2.1,0-3.9,1.8-3.9,4.1C119.8,155.3,121.6,157.1,123.7,157.1z"/>
		<path d="M132,149.8v7.7c0,0.2-0.1,0.3-0.3,0.3s-0.3-0.1-0.3-0.3v-8.6c0-0.1,0-0.3,0.1-0.4c0.1-0.1,0.4-0.1,0.5,0.1l5.7,7.9v-7.6
			c0-0.2,0.1-0.3,0.3-0.3c0.2,0,0.3,0.1,0.3,0.3v8.6c0,0.2-0.1,0.3-0.3,0.3c-0.1,0-0.2,0-0.3-0.1c0,0,0,0-0.1-0.1L132,149.8z"/>
		<path d="M141.8,156c0.1-0.1,0.3-0.1,0.4,0c0.7,0.6,1.9,1.2,3.1,1.2c0.8,0,1.6-0.2,2.1-0.6c0.5-0.4,0.8-0.9,0.8-1.4
			c0-0.5-0.3-0.9-0.8-1.3c-0.5-0.3-1.3-0.6-2.2-0.8h0c-0.9-0.2-1.6-0.4-2.2-0.8c-0.6-0.4-1-0.9-1-1.6c0-0.7,0.4-1.3,1-1.8
			c0.6-0.4,1.4-0.7,2.3-0.7c1.2,0,2.2,0.6,2.9,1.1c0.1,0.1,0.2,0.3,0.1,0.4c-0.1,0.1-0.3,0.2-0.4,0.1c-0.7-0.5-1.5-1-2.6-1
			c-0.8,0-1.4,0.2-1.9,0.6c-0.5,0.3-0.7,0.8-0.7,1.3c0,0.5,0.2,0.8,0.7,1.1c0.5,0.3,1.2,0.5,2,0.7h0c0.9,0.2,1.8,0.4,2.4,0.9
			c0.6,0.4,1,1,1,1.8c0,0.7-0.4,1.4-1.1,1.9c-0.6,0.5-1.5,0.7-2.4,0.7c-1.4,0-2.7-0.7-3.5-1.4C141.8,156.3,141.8,156.1,141.8,156z"
			/>
	</g>
	<g>
		<path d="M167.5,154.9c1,0,1.8-0.8,1.8-1.8c0-1-0.8-1.8-1.8-1.8c-1,0-1.8,0.8-1.8,1.8C165.6,154,166.5,154.9,167.5,154.9"/>
		<path d="M45.8,154.9c1,0,1.8-0.8,1.8-1.8c0-1-0.8-1.8-1.8-1.8c-1,0-1.8,0.8-1.8,1.8C44,154,44.8,154.9,45.8,154.9"/>
	</g>
</g>
<radialGradient id="SVGID_1_" cx="108.3555" cy="39.9688" r="33.826" gradientUnits="userSpaceOnUse">
	<stop  offset="0" style="stop-color:#F7F061"/>
	<stop  offset="1" style="stop-color:#E2B21A"/>
</radialGradient>
<path class="st0" d="M102.1,73l4.8,2.8l33.2-19.1V51L102.1,73z M95.9,69.4l4.8,2.8l39.4-22.7v-5.5L95.9,69.4z M89.6,65.8l4.8,2.8
	l45.6-26.3v-5.6L89.6,65.8z M83.5,62.3l4.7,2.7l51.8-29.9v-5.4L83.5,62.3z M76.6,57.4l29.9-17.3L76.6,22.9V57.4z M77.3,58.7l4.8,2.8
	L140.1,28v-4.7l-0.8-0.5L77.3,58.7z M76.9,21.5l31,17.9l4.9-2.8l-31-17.9L76.9,21.5z M83.2,17.9l31,17.9L119,33L88,15.1L83.2,17.9z
	 M89.4,14.3l30.8,17.8l-0.2,0.4l5.3-3l-31-17.9L89.4,14.3z M95.6,10.7l31,17.9l4.8-2.8l-31-17.9L95.6,10.7z M106.9,4.2l-5.1,2.9
	l31,17.9l5.1-2.9L106.9,4.2z"/>
<g>
	<g>
		<path d="M18.3,133.6c-0.2,0-0.4,0-0.7,0.1c-0.2,0-0.6,0-1,0c-3.1,0-5.7-1.1-7.7-3.2c-2.1-2.1-3.1-4.8-3.1-8c0-3.3,1-5.9,3.1-8.1
			c2.1-2.1,4.7-3.2,7.9-3.2c3.2,0,5.9,1.1,8,3.2c2.1,2.1,3.2,4.8,3.2,8.1c0,2.4-0.6,4.6-1.8,6.4c-1.2,1.8-2.9,3.2-5.2,4.1l1.4,2.9
			h-3L18.3,133.6z M17.1,131.2l-1.3-2.8h3l1.1,2.3c1.7-0.7,3-1.7,3.9-3.2c0.9-1.4,1.4-3.1,1.4-5c0-2.5-0.8-4.6-2.4-6.3
			c-1.6-1.7-3.6-2.5-6-2.5c-2.4,0-4.4,0.8-6,2.5c-1.6,1.6-2.4,3.7-2.4,6.3c0,2.5,0.8,4.6,2.3,6.2c1.6,1.6,3.5,2.5,5.9,2.5H17.1z"/>
		<path d="M37.9,111.7v13.9c0,2.2,0.4,3.7,1.3,4.5c0.8,0.8,2.5,1.1,4.9,1.1c2.4,0,4.1-0.4,4.9-1.1c0.8-0.8,1.2-2.2,1.2-4.5v-13.9
			h2.7v14.6c0,2.6-0.7,4.5-2.1,5.7c-1.4,1.1-3.6,1.7-6.8,1.7c-3.1,0-5.4-0.6-6.8-1.7c-1.4-1.1-2.1-3-2.1-5.7v-14.6H37.9z"/>
		<path d="M58,133.2l10.5-21.4h2.2l10.6,21.4h-2.9l-2.9-5.8H63.7l-2.8,5.8H58z M64.9,124.9h9.4l-4.7-9.5L64.9,124.9z"/>
		<path d="M96.9,111.7c3.4,0,6.1,1,8.2,3c2.1,2,3.1,4.6,3.1,7.8c0,3.2-1,5.8-3,7.7c-2,1.9-4.8,2.9-8.2,2.9h-9.2v-21.4H96.9z
			 M96.9,114.2h-6.5v16.5h6.5c2.6,0,4.7-0.7,6.2-2.2c1.5-1.5,2.3-3.5,2.3-6c0-2.5-0.8-4.5-2.3-6C101.6,114.9,99.5,114.2,96.9,114.2z
			"/>
		<path d="M115.9,133.2v-21.4h12.3c2.1,0,3.7,0.5,4.9,1.6c1.2,1.1,1.8,2.5,1.8,4.4c0,1.6-0.5,2.9-1.4,4c-0.9,1.1-2.2,1.8-3.7,2.1
			l5.4,9.4h-3l-5.4-9.4h-8.3v9.4H115.9z M118.6,121.3h9.5c1.3,0,2.4-0.3,3.1-0.9c0.7-0.6,1-1.5,1-2.6c0-1.1-0.3-2-1-2.6
			c-0.7-0.6-1.7-0.9-2.9-0.9h-9.6V121.3z"/>
		<path d="M138.2,133.2l10.5-21.4h2.2l10.6,21.4h-2.9l-2.9-5.8h-11.8l-2.8,5.8H138.2z M145.2,124.9h9.4l-4.7-9.5L145.2,124.9z"/>
		<path d="M168,133.2v-21.4h1.4l13.9,16v-16h2.7v21.4h-1.4l-14-16v16H168z"/>
		<path d="M199.2,133.2v-19h-9v-2.5h20.7v2.5h-9v19H199.2z"/>
	</g>
	<g>
		<path d="M64.4,156c0.1-0.1,0.3-0.1,0.4,0c0.7,0.6,1.9,1.2,3.1,1.2c0.8,0,1.6-0.2,2.1-0.6c0.5-0.4,0.8-0.9,0.8-1.4
			c0-0.5-0.3-0.9-0.8-1.3c-0.5-0.3-1.3-0.6-2.2-0.8h0c-0.9-0.2-1.6-0.4-2.2-0.8c-0.6-0.4-1-0.9-1-1.6c0-0.7,0.4-1.3,1-1.8
			c0.6-0.4,1.4-0.7,2.3-0.7c1.2,0,2.2,0.6,2.9,1.1c0.1,0.1,0.2,0.3,0.1,0.4c-0.1,0.1-0.3,0.2-0.4,0.1c-0.7-0.5-1.5-1-2.6-1
			c-0.8,0-1.4,0.2-1.9,0.6c-0.5,0.3-0.7,0.8-0.7,1.3c0,0.5,0.2,0.8,0.7,1.1c0.5,0.3,1.2,0.5,2,0.7h0c0.9,0.2,1.8,0.4,2.4,0.9
			c0.6,0.4,1,1,1,1.8c0,0.7-0.4,1.4-1.1,1.9c-0.6,0.5-1.5,0.7-2.4,0.7c-1.4,0-2.7-0.7-3.5-1.4C64.4,156.3,64.3,156.1,64.4,156z"/>
		<path d="M78.6,148.2c2.5,0,4.5,2.1,4.5,4.8c0,2.6-2,4.8-4.5,4.8c-2.5,0-4.5-2.1-4.5-4.8C74.1,150.4,76,148.2,78.6,148.2z
			 M78.6,157.1c2.1,0,3.8-1.8,3.8-4.1c0-2.3-1.8-4.1-3.8-4.1c-2.1,0-3.9,1.8-3.9,4.1C74.7,155.3,76.4,157.1,78.6,157.1z"/>
		<path d="M86.8,157.8L86.8,157.8c-0.2,0-0.3-0.1-0.3-0.3v-8.7c0-0.2,0.1-0.3,0.3-0.3c0.2,0,0.3,0.1,0.3,0.3v8.4h4.5
			c0.2,0,0.3,0.1,0.3,0.3c0,0.2-0.1,0.3-0.3,0.3H86.8z"/>
		<path d="M94.4,148.7c0-0.2,0.1-0.3,0.3-0.3c0.2,0,0.3,0.1,0.3,0.3v5.3c0,1.7,1.4,3.1,3.1,3.1c1.7,0,3.1-1.4,3.1-3.1v-5.3
			c0-0.2,0.1-0.3,0.3-0.3c0.2,0,0.3,0.1,0.3,0.3v5.3c0,2.1-1.7,3.8-3.8,3.8c-2.1,0-3.8-1.7-3.8-3.8V148.7z"/>
		<path d="M107.9,149h-2.8c-0.2,0-0.3-0.1-0.3-0.3c0-0.2,0.1-0.3,0.3-0.3h6.3c0.2,0,0.3,0.1,0.3,0.3c0,0.2-0.1,0.3-0.3,0.3h-2.8v8.4
			c0,0.2-0.1,0.3-0.3,0.3c-0.2,0-0.3-0.1-0.3-0.3V149z"/>
		<path d="M114.9,148.7c0-0.2,0.1-0.3,0.3-0.3c0.2,0,0.3,0.1,0.3,0.3v8.7c0,0.2-0.1,0.3-0.3,0.3c-0.2,0-0.3-0.1-0.3-0.3V148.7z"/>
		<path d="M123.7,148.2c2.5,0,4.5,2.1,4.5,4.8c0,2.6-2,4.8-4.5,4.8c-2.5,0-4.5-2.1-4.5-4.8C119.2,150.4,121.2,148.2,123.7,148.2z
			 M123.7,157.1c2.1,0,3.8-1.8,3.8-4.1c0-2.3-1.8-4.1-3.8-4.1c-2.1,0-3.9,1.8-3.9,4.1C119.8,155.3,121.6,157.1,123.7,157.1z"/>
		<path d="M132,149.8v7.7c0,0.2-0.1,0.3-0.3,0.3s-0.3-0.1-0.3-0.3v-8.6c0-0.1,0-0.3,0.1-0.4c0.1-0.1,0.4-0.1,0.5,0.1l5.7,7.9v-7.6
			c0-0.2,0.1-0.3,0.3-0.3c0.2,0,0.3,0.1,0.3,0.3v8.6c0,0.2-0.1,0.3-0.3,0.3c-0.1,0-0.2,0-0.3-0.1c0,0,0,0-0.1-0.1L132,149.8z"/>
		<path d="M141.8,156c0.1-0.1,0.3-0.1,0.4,0c0.7,0.6,1.9,1.2,3.1,1.2c0.8,0,1.6-0.2,2.1-0.6c0.5-0.4,0.8-0.9,0.8-1.4
			c0-0.5-0.3-0.9-0.8-1.3c-0.5-0.3-1.3-0.6-2.2-0.8h0c-0.9-0.2-1.6-0.4-2.2-0.8c-0.6-0.4-1-0.9-1-1.6c0-0.7,0.4-1.3,1-1.8
			c0.6-0.4,1.4-0.7,2.3-0.7c1.2,0,2.2,0.6,2.9,1.1c0.1,0.1,0.2,0.3,0.1,0.4c-0.1,0.1-0.3,0.2-0.4,0.1c-0.7-0.5-1.5-1-2.6-1
			c-0.8,0-1.4,0.2-1.9,0.6c-0.5,0.3-0.7,0.8-0.7,1.3c0,0.5,0.2,0.8,0.7,1.1c0.5,0.3,1.2,0.5,2,0.7h0c0.9,0.2,1.8,0.4,2.4,0.9
			c0.6,0.4,1,1,1,1.8c0,0.7-0.4,1.4-1.1,1.9c-0.6,0.5-1.5,0.7-2.4,0.7c-1.4,0-2.7-0.7-3.5-1.4C141.8,156.3,141.8,156.1,141.8,156z"
			/>
	</g>
	<g>
		<path d="M167.5,154.9c1,0,1.8-0.8,1.8-1.8c0-1-0.8-1.8-1.8-1.8c-1,0-1.8,0.8-1.8,1.8C165.6,154,166.5,154.9,167.5,154.9"/>
		<path d="M45.8,154.9c1,0,1.8-0.8,1.8-1.8c0-1-0.8-1.8-1.8-1.8c-1,0-1.8,0.8-1.8,1.8C44,154,44.8,154.9,45.8,154.9"/>
	</g>
</g>
<radialGradient id="SVGID_2_" cx="108.3555" cy="39.9692" r="33.8262" gradientUnits="userSpaceOnUse">
	<stop  offset="0" style="stop-color:#F7F061"/>
	<stop  offset="1" style="stop-color:#E2B21A"/>
</radialGradient>
<path class="st1" d="M102.1,73l4.8,2.8l33.2-19.1V51L102.1,73z M95.9,69.4l4.8,2.8l39.4-22.7v-5.5L95.9,69.4z M89.6,65.8l4.8,2.8
	l45.6-26.3v-5.6L89.6,65.8z M83.5,62.3l4.7,2.7l51.8-29.9v-5.4L83.5,62.3z M76.6,57.4l29.9-17.3L76.6,22.9V57.4z M77.3,58.7l4.8,2.8
	L140.1,28v-4.7l-0.8-0.5L77.3,58.7z M76.9,21.5l31,17.9l4.9-2.8l-31-17.9L76.9,21.5z M83.2,17.9l31,17.9L119,33L88,15.1L83.2,17.9z
	 M89.4,14.3l30.8,17.8l-0.2,0.4l5.3-3l-31-17.9L89.4,14.3z M95.6,10.7l31,17.9l4.8-2.8l-31-17.9L95.6,10.7z M106.9,4.2l-5.1,2.9
	l31,17.9l5.1-2.9L106.9,4.2z"/>
</svg>
