<?xml version="1.0" encoding="utf-8"?>
<!-- Generator: Adobe Illustrator 21.0.2, SVG Export Plug-In . SVG Version: 6.00 Build 0)  -->
<svg version="1.1" id="Layer_2" xmlns="http://www.w3.org/2000/svg" xmlns:xlink="http://www.w3.org/1999/xlink" x="0px" y="0px"
	 viewBox="0 0 89 100" style="enable-background:new 0 0 89 100;" xml:space="preserve">
<style type="text/css">
	.st0{fill:#131116;}
	.st1{fill:#E87C7C;}
</style>
<rect class="st0" width="89" height="100"/>
<polygon class="st1" points="1.2,26.9 42,50.4 1.2,74 "/>
<polygon class="st1" points="1.6,24.9 8.2,21 50.6,45.4 43.9,49.3 "/>
<polygon class="st1" points="10.2,19.9 16.7,16.1 59.1,40.5 52.5,44.3 "/>
<polygon class="st1" points="18.6,15 25.2,11.2 67.6,35.7 60.9,39.5 "/>
<polygon class="st1" points="27.1,10.1 33.7,6.3 75.9,30.7 69.4,34.5 "/>
<polygon class="st1" points="35.6,5.2 42.5,1.2 84.8,25.6 77.9,29.6 "/>
<polygon class="st1" points="86.7,26.7 86.7,34.3 8.7,79.4 2.1,75.6 "/>
<polygon class="st1" points="86.7,36.7 86.7,44.3 17,84.3 10.6,80.6 "/>
<polygon class="st1" points="86.7,46.4 86.7,54 25.6,89.2 19,85.4 "/>
<polygon class="st1" points="86.7,56.1 86.7,63.7 34.1,94.1 27.5,90.3 "/>
<polygon class="st1" points="86.7,66 86.7,73.6 42.5,99 35.9,95.2 "/>
</svg>
