<?xml version="1.0" encoding="utf-8"?>
<!-- Generator: Adobe Illustrator 21.0.2, SVG Export Plug-In . SVG Version: 6.00 Build 0)  -->
<svg version="1.1" id="Layer_1" xmlns="http://www.w3.org/2000/svg" xmlns:xlink="http://www.w3.org/1999/xlink" x="0px" y="0px"
	 viewBox="0 0 210 52" style="enable-background:new 0 0 210 52;" xml:space="preserve">
<style type="text/css">
	.st0{fill:#FFFFFF;}
</style>
<g>
	<g>
		<path class="st0" d="M14.8,24.7c-0.2,0-0.4,0-0.7,0.1c-0.2,0-0.6,0-1,0c-3.1,0-5.7-1.1-7.7-3.2c-2.1-2.1-3.1-4.8-3.1-8
			c0-3.3,1-5.9,3.1-8.1c2.1-2.1,4.7-3.2,7.9-3.2c3.2,0,5.9,1.1,8,3.2c2.1,2.1,3.2,4.8,3.2,8.1c0,2.4-0.6,4.6-1.8,6.4
			c-1.2,1.8-2.9,3.2-5.2,4.1L19,27h-3L14.8,24.7z M13.7,22.2l-1.3-2.8h3l1.1,2.3c1.7-0.7,3-1.7,3.9-3.2c0.9-1.4,1.4-3.1,1.4-5
			c0-2.5-0.8-4.6-2.4-6.3c-1.6-1.7-3.6-2.5-6-2.5c-2.4,0-4.4,0.8-6,2.5C5.9,9,5.1,11,5.1,13.6c0,2.5,0.8,4.6,2.3,6.2
			c1.6,1.6,3.5,2.5,5.9,2.5H13.7z"/>
		<path class="st0" d="M34.5,2.8v13.9c0,2.2,0.4,3.7,1.3,4.5c0.8,0.8,2.5,1.1,4.9,1.1c2.4,0,4.1-0.4,4.9-1.1
			c0.8-0.8,1.2-2.2,1.2-4.5V2.8h2.7v14.6c0,2.6-0.7,4.5-2.1,5.7c-1.4,1.1-3.6,1.7-6.8,1.7c-3.1,0-5.4-0.6-6.8-1.7
			c-1.4-1.1-2.1-3-2.1-5.7V2.8H34.5z"/>
		<path class="st0" d="M54.6,24.2L65.1,2.8h2.2l10.6,21.4H75l-2.9-5.8H60.3l-2.8,5.8H54.6z M61.5,16h9.4l-4.7-9.5L61.5,16z"/>
		<path class="st0" d="M93.5,2.8c3.4,0,6.1,1,8.2,3c2.1,2,3.1,4.6,3.1,7.8c0,3.2-1,5.8-3,7.7c-2,1.9-4.8,2.9-8.2,2.9h-9.2V2.8H93.5z
			 M93.5,5.3H87v16.5h6.5c2.6,0,4.7-0.7,6.2-2.2c1.5-1.5,2.3-3.5,2.3-6c0-2.5-0.8-4.5-2.3-6C98.2,6,96.1,5.3,93.5,5.3z"/>
		<path class="st0" d="M112.5,24.2V2.8h12.3c2.1,0,3.7,0.5,4.9,1.6c1.2,1.1,1.8,2.5,1.8,4.4c0,1.6-0.5,2.9-1.4,4
			c-0.9,1.1-2.2,1.8-3.7,2.1l5.4,9.4h-3l-5.4-9.4h-8.3v9.4H112.5z M115.1,12.3h9.5c1.3,0,2.4-0.3,3.1-0.9c0.7-0.6,1-1.5,1-2.6
			c0-1.1-0.3-2-1-2.6c-0.7-0.6-1.7-0.9-2.9-0.9h-9.6V12.3z"/>
		<path class="st0" d="M134.8,24.2l10.5-21.4h2.2l10.6,21.4h-2.9l-2.9-5.8h-11.8l-2.8,5.8H134.8z M141.7,16h9.4l-4.7-9.5L141.7,16z"
			/>
		<path class="st0" d="M164.6,24.2V2.8h1.4l13.9,16v-16h2.7v21.4h-1.4l-14-16v16H164.6z"/>
		<path class="st0" d="M195.8,24.2v-19h-9V2.8h20.7v2.5h-9v19H195.8z"/>
	</g>
	<g>
		<path class="st0" d="M61,47.1c0.1-0.1,0.3-0.1,0.4,0c0.7,0.6,1.9,1.2,3.1,1.2c0.8,0,1.6-0.2,2.1-0.6c0.5-0.4,0.8-0.9,0.8-1.4
			c0-0.5-0.3-0.9-0.8-1.3c-0.5-0.3-1.3-0.6-2.2-0.8h0c-0.9-0.2-1.6-0.4-2.2-0.8c-0.6-0.4-1-0.9-1-1.6c0-0.7,0.4-1.3,1-1.8
			c0.6-0.4,1.4-0.7,2.3-0.7c1.2,0,2.2,0.6,2.9,1.1c0.1,0.1,0.2,0.3,0.1,0.4C67.4,41,67.2,41,67,40.9c-0.7-0.5-1.5-1-2.6-1
			c-0.8,0-1.4,0.2-1.9,0.6c-0.5,0.3-0.7,0.8-0.7,1.3c0,0.5,0.2,0.8,0.7,1.1c0.5,0.3,1.2,0.5,2,0.7h0c0.9,0.2,1.8,0.4,2.4,0.9
			c0.6,0.4,1,1,1,1.8c0,0.7-0.4,1.4-1.1,1.9s-1.5,0.7-2.4,0.7c-1.4,0-2.7-0.7-3.5-1.4C60.9,47.4,60.9,47.2,61,47.1z"/>
		<path class="st0" d="M75.1,39.3c2.5,0,4.5,2.1,4.5,4.8c0,2.6-2,4.8-4.5,4.8c-2.5,0-4.5-2.1-4.5-4.8C70.6,41.4,72.6,39.3,75.1,39.3
			z M75.1,48.2c2.1,0,3.8-1.8,3.8-4.1c0-2.3-1.8-4.1-3.8-4.1c-2.1,0-3.9,1.8-3.9,4.1C71.3,46.4,73,48.2,75.1,48.2z"/>
		<path class="st0" d="M83.3,48.8L83.3,48.8c-0.2,0-0.3-0.1-0.3-0.3v-8.7c0-0.2,0.1-0.3,0.3-0.3c0.2,0,0.3,0.1,0.3,0.3v8.4h4.5
			c0.2,0,0.3,0.1,0.3,0.3c0,0.2-0.1,0.3-0.3,0.3H83.3z"/>
		<path class="st0" d="M90.9,39.8c0-0.2,0.1-0.3,0.3-0.3c0.2,0,0.3,0.1,0.3,0.3V45c0,1.7,1.4,3.1,3.1,3.1c1.7,0,3.1-1.4,3.1-3.1
			v-5.3c0-0.2,0.1-0.3,0.3-0.3c0.2,0,0.3,0.1,0.3,0.3V45c0,2.1-1.7,3.8-3.8,3.8c-2.1,0-3.8-1.7-3.8-3.8V39.8z"/>
		<path class="st0" d="M104.5,40.1h-2.8c-0.2,0-0.3-0.1-0.3-0.3c0-0.2,0.1-0.3,0.3-0.3h6.3c0.2,0,0.3,0.1,0.3,0.3
			c0,0.2-0.1,0.3-0.3,0.3h-2.8v8.4c0,0.2-0.1,0.3-0.3,0.3c-0.2,0-0.3-0.1-0.3-0.3V40.1z"/>
		<path class="st0" d="M111.5,39.8c0-0.2,0.1-0.3,0.3-0.3c0.2,0,0.3,0.1,0.3,0.3v8.7c0,0.2-0.1,0.3-0.3,0.3c-0.2,0-0.3-0.1-0.3-0.3
			V39.8z"/>
		<path class="st0" d="M120.3,39.3c2.5,0,4.5,2.1,4.5,4.8c0,2.6-2,4.8-4.5,4.8c-2.5,0-4.5-2.1-4.5-4.8
			C115.8,41.4,117.7,39.3,120.3,39.3z M120.3,48.2c2.1,0,3.8-1.8,3.8-4.1c0-2.3-1.8-4.1-3.8-4.1c-2.1,0-3.9,1.8-3.9,4.1
			C116.4,46.4,118.1,48.2,120.3,48.2z"/>
		<path class="st0" d="M128.5,40.8v7.7c0,0.2-0.1,0.3-0.3,0.3s-0.3-0.1-0.3-0.3v-8.6c0-0.1,0-0.3,0.1-0.4c0.1-0.1,0.4-0.1,0.5,0.1
			l5.7,7.9v-7.6c0-0.2,0.1-0.3,0.3-0.3c0.2,0,0.3,0.1,0.3,0.3v8.6c0,0.2-0.1,0.3-0.3,0.3c-0.1,0-0.2,0-0.3-0.1c0,0,0,0-0.1-0.1
			L128.5,40.8z"/>
		<path class="st0" d="M138.4,47.1c0.1-0.1,0.3-0.1,0.4,0c0.7,0.6,1.9,1.2,3.1,1.2c0.8,0,1.6-0.2,2.1-0.6c0.5-0.4,0.8-0.9,0.8-1.4
			c0-0.5-0.3-0.9-0.8-1.3c-0.5-0.3-1.3-0.6-2.2-0.8h0c-0.9-0.2-1.6-0.4-2.2-0.8c-0.6-0.4-1-0.9-1-1.6c0-0.7,0.4-1.3,1-1.8
			c0.6-0.4,1.4-0.7,2.3-0.7c1.2,0,2.2,0.6,2.9,1.1c0.1,0.1,0.2,0.3,0.1,0.4c-0.1,0.1-0.3,0.2-0.4,0.1c-0.7-0.5-1.5-1-2.6-1
			c-0.8,0-1.4,0.2-1.9,0.6c-0.5,0.3-0.7,0.8-0.7,1.3c0,0.5,0.2,0.8,0.7,1.1c0.5,0.3,1.2,0.5,2,0.7h0c0.9,0.2,1.8,0.4,2.4,0.9
			c0.6,0.4,1,1,1,1.8c0,0.7-0.4,1.4-1.1,1.9c-0.6,0.5-1.5,0.7-2.4,0.7c-1.4,0-2.7-0.7-3.5-1.4C138.3,47.4,138.3,47.2,138.4,47.1z"/>
	</g>
	<g>
		<path class="st0" d="M164,45.9c1,0,1.8-0.8,1.8-1.8c0-1-0.8-1.8-1.8-1.8c-1,0-1.8,0.8-1.8,1.8C162.2,45.1,163,45.9,164,45.9"/>
		<path class="st0" d="M42.4,45.9c1,0,1.8-0.8,1.8-1.8c0-1-0.8-1.8-1.8-1.8c-1,0-1.8,0.8-1.8,1.8C40.5,45.1,41.4,45.9,42.4,45.9"/>
	</g>
</g>
<g>
	<g>
		<path class="st0" d="M14.8,24.7c-0.2,0-0.4,0-0.7,0.1c-0.2,0-0.6,0-1,0c-3.1,0-5.7-1.1-7.7-3.2c-2.1-2.1-3.1-4.8-3.1-8
			c0-3.3,1-5.9,3.1-8.1c2.1-2.1,4.7-3.2,7.9-3.2c3.2,0,5.9,1.1,8,3.2c2.1,2.1,3.2,4.8,3.2,8.1c0,2.4-0.6,4.6-1.8,6.4
			c-1.2,1.8-2.9,3.2-5.2,4.1L19,27h-3L14.8,24.7z M13.7,22.2l-1.3-2.8h3l1.1,2.3c1.7-0.7,3-1.7,3.9-3.2c0.9-1.4,1.4-3.1,1.4-5
			c0-2.5-0.8-4.6-2.4-6.3c-1.6-1.7-3.6-2.5-6-2.5c-2.4,0-4.4,0.8-6,2.5C5.9,9,5.1,11,5.1,13.6c0,2.5,0.8,4.6,2.3,6.2
			c1.6,1.6,3.5,2.5,5.9,2.5H13.7z"/>
		<path class="st0" d="M34.5,2.8v13.9c0,2.2,0.4,3.7,1.3,4.5c0.8,0.8,2.5,1.1,4.9,1.1c2.4,0,4.1-0.4,4.9-1.1
			c0.8-0.8,1.2-2.2,1.2-4.5V2.8h2.7v14.6c0,2.6-0.7,4.5-2.1,5.7c-1.4,1.1-3.6,1.7-6.8,1.7c-3.1,0-5.4-0.6-6.8-1.7
			c-1.4-1.1-2.1-3-2.1-5.7V2.8H34.5z"/>
		<path class="st0" d="M54.6,24.2L65.1,2.8h2.2l10.6,21.4H75l-2.9-5.8H60.3l-2.8,5.8H54.6z M61.5,16h9.4l-4.7-9.5L61.5,16z"/>
		<path class="st0" d="M93.5,2.8c3.4,0,6.1,1,8.2,3c2.1,2,3.1,4.6,3.1,7.8c0,3.2-1,5.8-3,7.7c-2,1.9-4.8,2.9-8.2,2.9h-9.2V2.8H93.5z
			 M93.5,5.3H87v16.5h6.5c2.6,0,4.7-0.7,6.2-2.2c1.5-1.5,2.3-3.5,2.3-6c0-2.5-0.8-4.5-2.3-6C98.2,6,96.1,5.3,93.5,5.3z"/>
		<path class="st0" d="M112.5,24.2V2.8h12.3c2.1,0,3.7,0.5,4.9,1.6c1.2,1.1,1.8,2.5,1.8,4.4c0,1.6-0.5,2.9-1.4,4
			c-0.9,1.1-2.2,1.8-3.7,2.1l5.4,9.4h-3l-5.4-9.4h-8.3v9.4H112.5z M115.1,12.3h9.5c1.3,0,2.4-0.3,3.1-0.9c0.7-0.6,1-1.5,1-2.6
			c0-1.1-0.3-2-1-2.6c-0.7-0.6-1.7-0.9-2.9-0.9h-9.6V12.3z"/>
		<path class="st0" d="M134.8,24.2l10.5-21.4h2.2l10.6,21.4h-2.9l-2.9-5.8h-11.8l-2.8,5.8H134.8z M141.7,16h9.4l-4.7-9.5L141.7,16z"
			/>
		<path class="st0" d="M164.6,24.2V2.8h1.4l13.9,16v-16h2.7v21.4h-1.4l-14-16v16H164.6z"/>
		<path class="st0" d="M195.8,24.2v-19h-9V2.8h20.7v2.5h-9v19H195.8z"/>
	</g>
	<g>
		<path class="st0" d="M61,47.1c0.1-0.1,0.3-0.1,0.4,0c0.7,0.6,1.9,1.2,3.1,1.2c0.8,0,1.6-0.2,2.1-0.6c0.5-0.4,0.8-0.9,0.8-1.4
			c0-0.5-0.3-0.9-0.8-1.3c-0.5-0.3-1.3-0.6-2.2-0.8h0c-0.9-0.2-1.6-0.4-2.2-0.8c-0.6-0.4-1-0.9-1-1.6c0-0.7,0.4-1.3,1-1.8
			c0.6-0.4,1.4-0.7,2.3-0.7c1.2,0,2.2,0.6,2.9,1.1c0.1,0.1,0.2,0.3,0.1,0.4C67.4,41,67.2,41,67,40.9c-0.7-0.5-1.5-1-2.6-1
			c-0.8,0-1.4,0.2-1.9,0.6c-0.5,0.3-0.7,0.8-0.7,1.3c0,0.5,0.2,0.8,0.7,1.1c0.5,0.3,1.2,0.5,2,0.7h0c0.9,0.2,1.8,0.4,2.4,0.9
			c0.6,0.4,1,1,1,1.8c0,0.7-0.4,1.4-1.1,1.9c-0.6,0.5-1.5,0.7-2.4,0.7c-1.4,0-2.7-0.7-3.5-1.4C60.9,47.4,60.9,47.2,61,47.1z"/>
		<path class="st0" d="M75.1,39.3c2.5,0,4.5,2.1,4.5,4.8c0,2.6-2,4.8-4.5,4.8c-2.5,0-4.5-2.1-4.5-4.8C70.6,41.4,72.6,39.3,75.1,39.3
			z M75.1,48.2c2.1,0,3.8-1.8,3.8-4.1c0-2.3-1.8-4.1-3.8-4.1c-2.1,0-3.9,1.8-3.9,4.1C71.3,46.4,73,48.2,75.1,48.2z"/>
		<path class="st0" d="M83.3,48.8L83.3,48.8c-0.2,0-0.3-0.1-0.3-0.3v-8.7c0-0.2,0.1-0.3,0.3-0.3c0.2,0,0.3,0.1,0.3,0.3v8.4h4.5
			c0.2,0,0.3,0.1,0.3,0.3c0,0.2-0.1,0.3-0.3,0.3H83.3z"/>
		<path class="st0" d="M90.9,39.8c0-0.2,0.1-0.3,0.3-0.3c0.2,0,0.3,0.1,0.3,0.3V45c0,1.7,1.4,3.1,3.1,3.1c1.7,0,3.1-1.4,3.1-3.1
			v-5.3c0-0.2,0.1-0.3,0.3-0.3c0.2,0,0.3,0.1,0.3,0.3V45c0,2.1-1.7,3.8-3.8,3.8c-2.1,0-3.8-1.7-3.8-3.8V39.8z"/>
		<path class="st0" d="M104.5,40.1h-2.8c-0.2,0-0.3-0.1-0.3-0.3c0-0.2,0.1-0.3,0.3-0.3h6.3c0.2,0,0.3,0.1,0.3,0.3
			c0,0.2-0.1,0.3-0.3,0.3h-2.8v8.4c0,0.2-0.1,0.3-0.3,0.3c-0.2,0-0.3-0.1-0.3-0.3V40.1z"/>
		<path class="st0" d="M111.5,39.8c0-0.2,0.1-0.3,0.3-0.3c0.2,0,0.3,0.1,0.3,0.3v8.7c0,0.2-0.1,0.3-0.3,0.3c-0.2,0-0.3-0.1-0.3-0.3
			V39.8z"/>
		<path class="st0" d="M120.3,39.3c2.5,0,4.5,2.1,4.5,4.8c0,2.6-2,4.8-4.5,4.8c-2.5,0-4.5-2.1-4.5-4.8
			C115.8,41.4,117.7,39.3,120.3,39.3z M120.3,48.2c2.1,0,3.8-1.8,3.8-4.1c0-2.3-1.8-4.1-3.8-4.1c-2.1,0-3.9,1.8-3.9,4.1
			C116.4,46.4,118.1,48.2,120.3,48.2z"/>
		<path class="st0" d="M128.5,40.8v7.7c0,0.2-0.1,0.3-0.3,0.3s-0.3-0.1-0.3-0.3v-8.6c0-0.1,0-0.3,0.1-0.4c0.1-0.1,0.4-0.1,0.5,0.1
			l5.7,7.9v-7.6c0-0.2,0.1-0.3,0.3-0.3c0.2,0,0.3,0.1,0.3,0.3v8.6c0,0.2-0.1,0.3-0.3,0.3c-0.1,0-0.2,0-0.3-0.1c0,0,0,0-0.1-0.1
			L128.5,40.8z"/>
		<path class="st0" d="M138.4,47.1c0.1-0.1,0.3-0.1,0.4,0c0.7,0.6,1.9,1.2,3.1,1.2c0.8,0,1.6-0.2,2.1-0.6c0.5-0.4,0.8-0.9,0.8-1.4
			c0-0.5-0.3-0.9-0.8-1.3c-0.5-0.3-1.3-0.6-2.2-0.8h0c-0.9-0.2-1.6-0.4-2.2-0.8c-0.6-0.4-1-0.9-1-1.6c0-0.7,0.4-1.3,1-1.8
			c0.6-0.4,1.4-0.7,2.3-0.7c1.2,0,2.2,0.6,2.9,1.1c0.1,0.1,0.2,0.3,0.1,0.4c-0.1,0.1-0.3,0.2-0.4,0.1c-0.7-0.5-1.5-1-2.6-1
			c-0.8,0-1.4,0.2-1.9,0.6c-0.5,0.3-0.7,0.8-0.7,1.3c0,0.5,0.2,0.8,0.7,1.1c0.5,0.3,1.2,0.5,2,0.7h0c0.9,0.2,1.8,0.4,2.4,0.9
			c0.6,0.4,1,1,1,1.8c0,0.7-0.4,1.4-1.1,1.9c-0.6,0.5-1.5,0.7-2.4,0.7c-1.4,0-2.7-0.7-3.5-1.4C138.3,47.4,138.3,47.2,138.4,47.1z"/>
	</g>
	<g>
		<path class="st0" d="M164,45.9c1,0,1.8-0.8,1.8-1.8c0-1-0.8-1.8-1.8-1.8c-1,0-1.8,0.8-1.8,1.8C162.2,45.1,163,45.9,164,45.9"/>
		<path class="st0" d="M42.4,45.9c1,0,1.8-0.8,1.8-1.8c0-1-0.8-1.8-1.8-1.8c-1,0-1.8,0.8-1.8,1.8C40.5,45.1,41.4,45.9,42.4,45.9"/>
	</g>
</g>
</svg>
