<?xml version="1.0" encoding="utf-8"?>
<!-- Generator: Adobe Illustrator 21.0.2, SVG Export Plug-In . SVG Version: 6.00 Build 0)  -->
<svg version="1.1" id="Layer_1" xmlns="http://www.w3.org/2000/svg" xmlns:xlink="http://www.w3.org/1999/xlink" x="0px" y="0px"
	 viewBox="0 0 89 100" style="enable-background:new 0 0 89 100;" xml:space="preserve">
<style type="text/css">
	.st0{fill:url(#SVGID_1_);}
	.st1{fill:url(#SVGID_2_);}
</style>
<radialGradient id="SVGID_1_" cx="44.5089" cy="50.117" r="46.1853" gradientUnits="userSpaceOnUse">
	<stop  offset="0" style="stop-color:#F9E680"/>
	<stop  offset="1" style="stop-color:#E3B73A"/>
</radialGradient>
<path class="st0" d="M35.9,95.2l6.6,3.8l45.3-26.1v-7.6L35.9,95.2z M27.5,90.3l6.6,3.8L87.8,63v-7.6L27.5,90.3z M19,85.4l6.6,3.8
	l62.3-35.9v-7.6L19,85.4z M10.6,80.6l6.4,3.7l70.8-40.9V36L10.6,80.6z M1.2,74L42,50.4L1.2,26.9V74z M2.1,75.6l6.6,3.8l79.1-45.7
	v-6.4l-1.1-0.6L2.1,75.6z M1.6,24.9l42.3,24.4l6.7-3.9L8.2,21L1.6,24.9z M10.2,19.9l42.3,24.4l6.6-3.8L16.7,16.1L10.2,19.9z
	 M18.6,15l42.1,24.3l-0.3,0.5l7.2-4.1L25.2,11.2L18.6,15z M27.1,10.1l42.3,24.4l6.5-3.8L33.7,6.3L27.1,10.1z M42.5,1.2l-6.9,4
	l42.3,24.4l6.9-4L42.5,1.2z"/>
<radialGradient id="SVGID_2_" cx="44.5089" cy="50.1177" r="46.1856" gradientUnits="userSpaceOnUse">
	<stop  offset="0" style="stop-color:#F9E680"/>
	<stop  offset="1" style="stop-color:#E3B73A"/>
</radialGradient>
<path class="st1" d="M35.9,95.2l6.6,3.8l45.3-26.1v-7.6L35.9,95.2z M27.5,90.3l6.6,3.8L87.8,63v-7.6L27.5,90.3z M19,85.4l6.6,3.8
	l62.3-35.9v-7.6L19,85.4z M10.6,80.6l6.4,3.7l70.8-40.9V36L10.6,80.6z M1.2,74L42,50.4L1.2,26.9V74z M2.1,75.6l6.6,3.8l79.1-45.7
	v-6.4l-1.1-0.6L2.1,75.6z M1.6,24.9l42.3,24.4l6.7-3.9L8.2,21L1.6,24.9z M10.2,19.9l42.3,24.4l6.6-3.8L16.7,16.1L10.2,19.9z
	 M18.6,15l42.1,24.3l-0.3,0.5l7.2-4.1L25.2,11.2L18.6,15z M27.1,10.1l42.3,24.4l6.5-3.8L33.7,6.3L27.1,10.1z M42.5,1.2l-6.9,4
	l42.3,24.4l6.9-4L42.5,1.2z"/>
</svg>
