<?xml version="1.0" encoding="utf-8"?>
<!-- Generator: Adobe Illustrator 21.0.2, SVG Export Plug-In . SVG Version: 6.00 Build 0)  -->
<svg version="1.1" id="Layer_1" xmlns="http://www.w3.org/2000/svg" xmlns:xlink="http://www.w3.org/1999/xlink" x="0px" y="0px"
	 viewBox="0 0 208 28" style="enable-background:new 0 0 208 28;" xml:space="preserve">
<style type="text/css">
	.st0{fill:#131116;}
</style>
<g>
	<g>
		<path class="st0" d="M13.8,23.7c-0.2,0-0.4,0-0.7,0.1c-0.2,0-0.6,0-1,0c-3.1,0-5.7-1.1-7.7-3.2c-2.1-2.1-3.1-4.8-3.1-8
			c0-3.3,1-5.9,3.1-8.1c2.1-2.1,4.7-3.2,7.9-3.2c3.2,0,5.9,1.1,8,3.2c2.1,2.1,3.2,4.8,3.2,8.1c0,2.4-0.6,4.6-1.8,6.4
			c-1.2,1.8-2.9,3.2-5.2,4.1L18,26h-3L13.8,23.7z M12.7,21.2l-1.3-2.8h3l1.1,2.3c1.7-0.7,3-1.7,3.9-3.2c0.9-1.4,1.4-3.1,1.4-5
			c0-2.5-0.8-4.6-2.4-6.3c-1.6-1.7-3.6-2.5-6-2.5c-2.4,0-4.4,0.8-6,2.5C4.9,8,4.1,10,4.1,12.6c0,2.5,0.8,4.6,2.3,6.2
			c1.6,1.6,3.5,2.5,5.9,2.5H12.7z"/>
		<path class="st0" d="M33.5,1.8v13.9c0,2.2,0.4,3.7,1.3,4.5c0.8,0.8,2.5,1.1,4.9,1.1c2.4,0,4.1-0.4,4.9-1.1
			c0.8-0.8,1.2-2.2,1.2-4.5V1.8h2.7v14.6c0,2.6-0.7,4.5-2.1,5.7c-1.4,1.1-3.6,1.7-6.8,1.7c-3.1,0-5.4-0.6-6.8-1.7
			c-1.4-1.1-2.1-3-2.1-5.7V1.8H33.5z"/>
		<path class="st0" d="M53.6,23.2L64.1,1.8h2.2l10.6,21.4H74l-2.9-5.8H59.3l-2.8,5.8H53.6z M60.5,15h9.4l-4.7-9.5L60.5,15z"/>
		<path class="st0" d="M92.5,1.8c3.4,0,6.1,1,8.2,3c2.1,2,3.1,4.6,3.1,7.8c0,3.2-1,5.8-3,7.7c-2,1.9-4.8,2.9-8.2,2.9h-9.2V1.8H92.5z
			 M92.5,4.3H86v16.5h6.5c2.6,0,4.7-0.7,6.2-2.2c1.5-1.5,2.3-3.5,2.3-6c0-2.5-0.8-4.5-2.3-6C97.2,5,95.1,4.3,92.5,4.3z"/>
		<path class="st0" d="M111.5,23.2V1.8h12.3c2.1,0,3.7,0.5,4.9,1.6c1.2,1.1,1.8,2.5,1.8,4.4c0,1.6-0.5,2.9-1.4,4
			c-0.9,1.1-2.2,1.8-3.7,2.1l5.4,9.4h-3l-5.4-9.4h-8.3v9.4H111.5z M114.1,11.3h9.5c1.3,0,2.4-0.3,3.1-0.9c0.7-0.6,1-1.5,1-2.6
			c0-1.1-0.3-2-1-2.6c-0.7-0.6-1.7-0.9-2.9-0.9h-9.6V11.3z"/>
		<path class="st0" d="M133.8,23.2l10.5-21.4h2.2l10.6,21.4h-2.9l-2.9-5.8h-11.8l-2.8,5.8H133.8z M140.7,15h9.4l-4.7-9.5L140.7,15z"
			/>
		<path class="st0" d="M163.6,23.2V1.8h1.4l13.9,16v-16h2.7v21.4h-1.4l-14-16v16H163.6z"/>
		<path class="st0" d="M194.8,23.2v-19h-9V1.8h20.7v2.5h-9v19H194.8z"/>
	</g>
</g>
<g>
	<g>
		<path class="st0" d="M13.8,23.7c-0.2,0-0.4,0-0.7,0.1c-0.2,0-0.6,0-1,0c-3.1,0-5.7-1.1-7.7-3.2c-2.1-2.1-3.1-4.8-3.1-8
			c0-3.3,1-5.9,3.1-8.1c2.1-2.1,4.7-3.2,7.9-3.2c3.2,0,5.9,1.1,8,3.2c2.1,2.1,3.2,4.8,3.2,8.1c0,2.4-0.6,4.6-1.8,6.4
			c-1.2,1.8-2.9,3.2-5.2,4.1L18,26h-3L13.8,23.7z M12.7,21.2l-1.3-2.8h3l1.1,2.3c1.7-0.7,3-1.7,3.9-3.2c0.9-1.4,1.4-3.1,1.4-5
			c0-2.5-0.8-4.6-2.4-6.3c-1.6-1.7-3.6-2.5-6-2.5c-2.4,0-4.4,0.8-6,2.5C4.9,8,4.1,10,4.1,12.6c0,2.5,0.8,4.6,2.3,6.2
			c1.6,1.6,3.5,2.5,5.9,2.5H12.7z"/>
		<path class="st0" d="M33.5,1.8v13.9c0,2.2,0.4,3.7,1.3,4.5c0.8,0.8,2.5,1.1,4.9,1.1c2.4,0,4.1-0.4,4.9-1.1
			c0.8-0.8,1.2-2.2,1.2-4.5V1.8h2.7v14.6c0,2.6-0.7,4.5-2.1,5.7c-1.4,1.1-3.6,1.7-6.8,1.7c-3.1,0-5.4-0.6-6.8-1.7
			c-1.4-1.1-2.1-3-2.1-5.7V1.8H33.5z"/>
		<path class="st0" d="M53.6,23.2L64.1,1.8h2.2l10.6,21.4H74l-2.9-5.8H59.3l-2.8,5.8H53.6z M60.5,15h9.4l-4.7-9.5L60.5,15z"/>
		<path class="st0" d="M92.5,1.8c3.4,0,6.1,1,8.2,3c2.1,2,3.1,4.6,3.1,7.8c0,3.2-1,5.8-3,7.7c-2,1.9-4.8,2.9-8.2,2.9h-9.2V1.8H92.5z
			 M92.5,4.3H86v16.5h6.5c2.6,0,4.7-0.7,6.2-2.2c1.5-1.5,2.3-3.5,2.3-6c0-2.5-0.8-4.5-2.3-6C97.2,5,95.1,4.3,92.5,4.3z"/>
		<path class="st0" d="M111.5,23.2V1.8h12.3c2.1,0,3.7,0.5,4.9,1.6c1.2,1.1,1.8,2.5,1.8,4.4c0,1.6-0.5,2.9-1.4,4
			c-0.9,1.1-2.2,1.8-3.7,2.1l5.4,9.4h-3l-5.4-9.4h-8.3v9.4H111.5z M114.1,11.3h9.5c1.3,0,2.4-0.3,3.1-0.9c0.7-0.6,1-1.5,1-2.6
			c0-1.1-0.3-2-1-2.6c-0.7-0.6-1.7-0.9-2.9-0.9h-9.6V11.3z"/>
		<path class="st0" d="M133.8,23.2l10.5-21.4h2.2l10.6,21.4h-2.9l-2.9-5.8h-11.8l-2.8,5.8H133.8z M140.7,15h9.4l-4.7-9.5L140.7,15z"
			/>
		<path class="st0" d="M163.6,23.2V1.8h1.4l13.9,16v-16h2.7v21.4h-1.4l-14-16v16H163.6z"/>
		<path class="st0" d="M194.8,23.2v-19h-9V1.8h20.7v2.5h-9v19H194.8z"/>
	</g>
</g>
</svg>
