<?xml version="1.0" encoding="utf-8"?>
<!-- Generator: Adobe Illustrator 21.0.2, SVG Export Plug-In . SVG Version: 6.00 Build 0)  -->
<svg version="1.1" id="Layer_1" xmlns="http://www.w3.org/2000/svg" xmlns:xlink="http://www.w3.org/1999/xlink" x="0px" y="0px"
	 viewBox="0 0 312.6 79.1" style="enable-background:new 0 0 312.6 79.1;" xml:space="preserve">
<style type="text/css">
	.st0{fill:#FFFFFF;}
	.st1{fill:url(#SVGID_1_);}
</style>
<g>
	<g>
		<path class="st0" d="M114.7,44.7c-0.2,0-0.4,0-0.7,0.1c-0.2,0-0.6,0-1,0c-3.1,0-5.7-1.1-7.7-3.2c-2.1-2.1-3.1-4.8-3.1-8
			c0-3.3,1-5.9,3.1-8.1c2.1-2.1,4.7-3.2,7.9-3.2c3.2,0,5.9,1.1,8,3.2s3.2,4.8,3.2,8.1c0,2.4-0.6,4.6-1.8,6.4
			c-1.2,1.8-2.9,3.2-5.2,4.1l1.4,2.9h-3L114.7,44.7z M113.5,42.2l-1.3-2.8h3l1.1,2.3c1.7-0.7,3-1.7,3.9-3.2c0.9-1.4,1.4-3.1,1.4-5
			c0-2.5-0.8-4.6-2.4-6.3c-1.6-1.7-3.6-2.5-6-2.5s-4.4,0.8-6,2.5c-1.6,1.6-2.4,3.7-2.4,6.3c0,2.5,0.8,4.6,2.3,6.2
			c1.6,1.6,3.5,2.5,5.9,2.5H113.5z"/>
		<path class="st0" d="M134.3,22.8v13.9c0,2.2,0.4,3.7,1.3,4.5c0.8,0.8,2.5,1.1,4.9,1.1s4.1-0.4,4.9-1.1c0.8-0.8,1.2-2.2,1.2-4.5
			V22.8h2.7v14.6c0,2.6-0.7,4.5-2.1,5.7c-1.4,1.1-3.6,1.7-6.8,1.7c-3.1,0-5.4-0.6-6.8-1.7c-1.4-1.1-2.1-3-2.1-5.7V22.8H134.3z"/>
		<path class="st0" d="M154.4,44.2l10.5-21.4h2.2l10.6,21.4h-2.9l-2.9-5.8h-11.8l-2.8,5.8H154.4z M161.3,35.9h9.4l-4.7-9.5
			L161.3,35.9z"/>
		<path class="st0" d="M193.4,22.8c3.4,0,6.1,1,8.2,3c2.1,2,3.1,4.6,3.1,7.8s-1,5.8-3,7.7s-4.8,2.9-8.2,2.9h-9.2V22.8H193.4z
			 M193.4,25.2h-6.5v16.5h6.5c2.6,0,4.7-0.7,6.2-2.2s2.3-3.5,2.3-6s-0.8-4.5-2.3-6C198,26,195.9,25.2,193.4,25.2z"/>
		<path class="st0" d="M212.3,44.2V22.8h12.3c2.1,0,3.7,0.5,4.9,1.6s1.8,2.5,1.8,4.4c0,1.6-0.5,2.9-1.4,4c-0.9,1.1-2.2,1.8-3.7,2.1
			l5.4,9.4h-3l-5.4-9.4H215v9.4L212.3,44.2L212.3,44.2z M215,32.3h9.5c1.3,0,2.4-0.3,3.1-0.9c0.7-0.6,1-1.5,1-2.6s-0.3-2-1-2.6
			s-1.7-0.9-2.9-0.9H215V32.3z"/>
		<path class="st0" d="M234.7,44.2l10.5-21.4h2.2L258,44.2h-2.9l-2.9-5.8h-11.8l-2.8,5.8H234.7z M241.6,35.9h9.4l-4.7-9.5
			L241.6,35.9z"/>
		<path class="st0" d="M264.4,44.2V22.8h1.4l13.9,16v-16h2.7v21.4H281l-14-16v16C267,44.2,264.4,44.2,264.4,44.2z"/>
		<path class="st0" d="M295.6,44.2v-19h-9v-2.5h20.7v2.5h-9v19H295.6z"/>
	</g>
	<g>
		<path class="st0" d="M160.8,67c0.1-0.1,0.3-0.1,0.4,0c0.7,0.6,1.9,1.2,3.1,1.2c0.8,0,1.6-0.2,2.1-0.6s0.8-0.9,0.8-1.4
			s-0.3-0.9-0.8-1.3c-0.5-0.3-1.3-0.6-2.2-0.8l0,0c-0.9-0.2-1.6-0.4-2.2-0.8c-0.6-0.4-1-0.9-1-1.6c0-0.7,0.4-1.3,1-1.8
			c0.6-0.4,1.4-0.7,2.3-0.7c1.2,0,2.2,0.6,2.9,1.1c0.1,0.1,0.2,0.3,0.1,0.4c-0.1,0.1-0.3,0.2-0.4,0.1c-0.7-0.5-1.5-1-2.6-1
			c-0.8,0-1.4,0.2-1.9,0.6c-0.5,0.3-0.7,0.8-0.7,1.3s0.2,0.8,0.7,1.1s1.2,0.5,2,0.7l0,0c0.9,0.2,1.8,0.4,2.4,0.9c0.6,0.4,1,1,1,1.8
			c0,0.7-0.4,1.4-1.1,1.9c-0.6,0.5-1.5,0.7-2.4,0.7c-1.4,0-2.7-0.7-3.5-1.4C160.8,67.4,160.8,67.2,160.8,67z"/>
		<path class="st0" d="M175,59.3c2.5,0,4.5,2.1,4.5,4.7c0,2.6-2,4.8-4.5,4.8s-4.5-2.1-4.5-4.8C170.5,61.4,172.4,59.3,175,59.3z
			 M175,68.1c2.1,0,3.8-1.8,3.8-4.1c0-2.3-1.8-4.1-3.8-4.1c-2.1,0-3.9,1.8-3.9,4.1C171.1,66.3,172.8,68.1,175,68.1z"/>
		<path class="st0" d="M183.2,68.8L183.2,68.8c-0.2,0-0.3-0.1-0.3-0.3v-8.7c0-0.2,0.1-0.3,0.3-0.3s0.3,0.1,0.3,0.3v8.4h4.5
			c0.2,0,0.3,0.1,0.3,0.3c0,0.2-0.1,0.3-0.3,0.3H183.2z"/>
		<path class="st0" d="M190.8,59.8c0-0.2,0.1-0.3,0.3-0.3s0.3,0.1,0.3,0.3V65c0,1.7,1.4,3.1,3.1,3.1c1.7,0,3.1-1.4,3.1-3.1v-5.3
			c0-0.2,0.1-0.3,0.3-0.3s0.3,0.1,0.3,0.3V65c0,2.1-1.7,3.8-3.8,3.8s-3.8-1.7-3.8-3.8v-5.2H190.8z"/>
		<path class="st0" d="M204.4,60.1h-2.8c-0.2,0-0.3-0.1-0.3-0.3s0.1-0.3,0.3-0.3h6.3c0.2,0,0.3,0.1,0.3,0.3s-0.1,0.3-0.3,0.3H205
			v8.4c0,0.2-0.1,0.3-0.3,0.3s-0.3-0.1-0.3-0.3V60.1z"/>
		<path class="st0" d="M211.4,59.8c0-0.2,0.1-0.3,0.3-0.3s0.3,0.1,0.3,0.3v8.7c0,0.2-0.1,0.3-0.3,0.3s-0.3-0.1-0.3-0.3V59.8z"/>
		<path class="st0" d="M220.1,59.3c2.5,0,4.5,2.1,4.5,4.7c0,2.6-2,4.8-4.5,4.8s-4.5-2.1-4.5-4.8C215.6,61.4,217.6,59.3,220.1,59.3z
			 M220.1,68.1c2.1,0,3.8-1.8,3.8-4.1c0-2.3-1.8-4.1-3.8-4.1c-2.1,0-3.9,1.8-3.9,4.1C216.2,66.3,218,68.1,220.1,68.1z"/>
		<path class="st0" d="M228.4,60.8v7.7c0,0.2-0.1,0.3-0.3,0.3s-0.3-0.1-0.3-0.3v-8.6c0-0.1,0-0.3,0.1-0.4c0.1-0.1,0.4-0.1,0.5,0.1
			l5.7,7.9v-7.6c0-0.2,0.1-0.3,0.3-0.3s0.3,0.1,0.3,0.3v8.6c0,0.2-0.1,0.3-0.3,0.3c-0.1,0-0.2,0-0.3-0.1c0,0,0,0-0.1-0.1L228.4,60.8
			z"/>
		<path class="st0" d="M238.3,67c0.1-0.1,0.3-0.1,0.4,0c0.7,0.6,1.9,1.2,3.1,1.2c0.8,0,1.6-0.2,2.1-0.6s0.8-0.9,0.8-1.4
			s-0.3-0.9-0.8-1.3c-0.5-0.3-1.3-0.6-2.2-0.8l0,0c-0.9-0.2-1.6-0.4-2.2-0.8c-0.6-0.4-1-0.9-1-1.6c0-0.7,0.4-1.3,1-1.8
			c0.6-0.4,1.4-0.7,2.3-0.7c1.2,0,2.2,0.6,2.9,1.1c0.1,0.1,0.2,0.3,0.1,0.4c-0.1,0.1-0.3,0.2-0.4,0.1c-0.7-0.5-1.5-1-2.6-1
			c-0.8,0-1.4,0.2-1.9,0.6c-0.5,0.3-0.7,0.8-0.7,1.3s0.2,0.8,0.7,1.1s1.2,0.5,2,0.7l0,0c0.9,0.2,1.8,0.4,2.4,0.9c0.6,0.4,1,1,1,1.8
			c0,0.7-0.4,1.4-1.1,1.9c-0.6,0.5-1.5,0.7-2.4,0.7c-1.4,0-2.7-0.7-3.5-1.4C238.2,67.4,238.2,67.2,238.3,67z"/>
	</g>
	<g>
		<path class="st0" d="M263.9,65.9c1,0,1.8-0.8,1.8-1.8s-0.8-1.8-1.8-1.8s-1.8,0.8-1.8,1.8C262,65.1,262.9,65.9,263.9,65.9"/>
		<path class="st0" d="M142.2,65.9c1,0,1.8-0.8,1.8-1.8s-0.8-1.8-1.8-1.8s-1.8,0.8-1.8,1.8S141.2,65.9,142.2,65.9"/>
	</g>
	
		<radialGradient id="SVGID_1_" cx="35.5" cy="43.4" r="33.8122" gradientTransform="matrix(1 0 0 -1 0 82)" gradientUnits="userSpaceOnUse">
		<stop  offset="0" style="stop-color:#FAE780"/>
		<stop  offset="1" style="stop-color:#E4B83A"/>
	</radialGradient>
	<path class="st1" d="M29.2,71.6l4.8,2.8l33.2-19.1v-5.6L29.2,71.6z M23,68.1l4.8,2.8l39.4-22.7v-5.5L23,68.1z M16.8,64.5l4.8,2.8
		L67.2,41v-5.6L16.8,64.5z M10.7,60.9l4.7,2.7l51.8-29.9v-5.4L10.7,60.9z M3.8,56.1l29.9-17.3L3.8,21.6V56.1z M4.4,57.3l4.8,2.8
		l57.9-33.5V22l-0.8-0.5L4.4,57.3z M4.1,20.1l31,17.9l4.9-2.8L9,17.3L4.1,20.1z M10.3,16.5l31,17.9l4.8-2.8l-31-17.9L10.3,16.5z
		 M16.5,12.9l30.8,17.8l-0.2,0.4l5.3-3l-31-17.9L16.5,12.9z M22.8,9.3l31,17.9l4.8-2.8l-31-17.9L22.8,9.3z M34,2.8l-5,3l31,17.9
		l5.1-2.9L34,2.8z"/>
</g>
</svg>
