<?xml version="1.0" encoding="utf-8"?>
<!-- Generator: Adobe Illustrator 21.0.2, SVG Export Plug-In . SVG Version: 6.00 Build 0)  -->
<svg version="1.1" id="Layer_2" xmlns="http://www.w3.org/2000/svg" xmlns:xlink="http://www.w3.org/1999/xlink" x="0px" y="0px"
	 viewBox="0 0 89 100" style="enable-background:new 0 0 89 100;" xml:space="preserve">
<style type="text/css">
	.st0{fill:#131116;}
</style>
<path class="st0" d="M-6.2-5.5v113.6H96.2V-5.5H-6.2z M42.9,1.2l42.3,24.4l-6.9,4L36,5.2L42.9,1.2z M34.1,6.3l42.2,24.4l-6.5,3.8
	L27.5,10.1L34.1,6.3z M25.6,11.2L68,35.7l-6.7,3.8L19,15L25.6,11.2z M17.1,16.1l42.4,24.4l-6.6,3.8L10.6,19.9L17.1,16.1z M8.6,21
	L51,45.4l-6.7,3.9L2,24.9L8.6,21z M1.6,26.9l40.8,23.5L1.6,74V26.9z M87.1,73.6L42.9,99l-6.6-3.8L87.1,66V73.6z M87.1,63.7
	L34.5,94.1l-6.6-3.8l59.2-34.2V63.7z M87.1,54L26,89.2l-6.6-3.8l67.7-39V54z M87.1,44.3l-69.7,40L11,80.6l76.1-43.9V44.3z
	 M87.1,34.3l-78,45.1l-6.6-3.8l84.6-48.9V34.3z"/>
</svg>
