<?xml version="1.0" encoding="utf-8"?>
<!-- Generator: Adobe Illustrator 21.0.2, SVG Export Plug-In . SVG Version: 6.00 Build 0)  -->
<svg version="1.1" id="Layer_2" xmlns="http://www.w3.org/2000/svg" xmlns:xlink="http://www.w3.org/1999/xlink" x="0px" y="0px"
	 viewBox="0 0 89 100" style="enable-background:new 0 0 89 100;" xml:space="preserve">
<style type="text/css">
	.st0{fill:#131116;}
</style>
<path class="st0" d="M0,0v100h89V0H0z M42.5,1.2l42.3,24.4l-6.9,4L35.6,5.2L42.5,1.2z M33.7,6.3l42.2,24.4l-6.5,3.8L27.1,10.1
	L33.7,6.3z M25.2,11.2l42.4,24.5l-6.7,3.8L18.6,15L25.2,11.2z M16.7,16.1l42.4,24.4l-6.6,3.8L10.2,19.9L16.7,16.1z M8.2,21
	l42.4,24.4l-6.7,3.9L1.6,24.9L8.2,21z M1.2,26.9L42,50.4L1.2,74V26.9z M86.7,73.6L42.5,99l-6.6-3.8L86.7,66V73.6z M86.7,63.7
	L34.1,94.1l-6.6-3.8l59.2-34.2V63.7z M86.7,54L25.6,89.2L19,85.4l67.7-39V54z M86.7,44.3L17,84.3l-6.4-3.7l76.1-43.9V44.3z
	 M86.7,34.3l-78,45.1l-6.6-3.8l84.6-48.9V34.3z"/>
</svg>
