<svg xmlns="http://www.w3.org/2000/svg" width="130" height="66.5" viewBox="0 0 130 66.5"><path fill="#D52F27" d="M73.458 14.75c-.824-1.215-8.94 7.577-8.192 5.869.748-1.708 6.593-10.98 5.938-13.629-.654-2.65-9.875 11.352-10.061 10.316-.187-1.037 5.45-16.958 1.319-14.59-2.698 1.544-7.832 14.441-7.832 14.441S57.609 2.066 56.2 1.969c-4.842-.333-10.659 20.913-10.771 21.325 0 .017-.005.019-.005.019l.005-.019c.001-.068-.077-.437-.907-2.479-1.993-4.9-3.094-11.847-5.347-4.169-3.304 11.266 3.863 27.863 6.583 29.759.28.194.621.368.991.53 7.23-2.971 15.387-7.601 14.934-12.451-.74-7.919-9.637-7.476-11.39-5.189-4.156 5.421 2.276 8.198 4.093 5.51 1.817-2.688-.682-4.813-.682-4.813 1.447.463 3.429.71 3.985 2.979.555 2.271.552 5.175-4.116 7.337-4.846 2.243-9.554-3.404-9.569-7.173-.023-5.886 2.794-10.219 10.584-10.219 6.17 0 10.895 2.467 13.391 6.509.383-1.425.752-2.707 1.045-3.592 1.039-3.121 5.796-9.068 4.434-11.083"/><path d="M68.398 42.368l3.867 10.096a.731.731 0 0 1 .064.329c0 .393-.452.59-1.29.59h-4.254c-1.678 0-2.452-.262-2.452-.721 0-.59.322-1.377.451-1.641l3.614-8.653zm-4.256 21.111c-1.418 0-3.868-.918-3.03-3.016l1.547-3.869c.516-1.246.581-1.246.774-1.443.193-.195 1.161-.327 2.064-.327h6.253c1.419 0 1.611.394 2.32 2.032l1.871 4.393c.387.918.129 1.509-1.226 1.771l-1.868.394c-.774.131-.97.131-.97.459s.194.524.71.524l8.188-.263 5.48.132c.389 0 .516-.132.516-.525 0-.524-.191-.656-1.289-.656-1.096 0-2.256-.786-2.902-2.361l-8.832-21.176c-.258-.59-.322-1.638-.322-2.031 0-.918-.129-1.442-.451-1.442s-.838.196-1.16.262l-7.479 1.181c-.193 0-.322.262-.322.394 0 .327.516.589 1.096.851l1.482.656c.839.393.774.721.709.917l-8.059 19.733c-1.032 2.558-2.45 3.213-3.61 3.278-1.16.066-1.805-.063-1.805.591 0 .394.452.459 1.096.459s2.901-.328 4.319-.328c1.032 0 4.9.459 5.61.394.515-.065.773-.262.773-.655 0-.262-.128-.328-.386-.328h-1.096v-.001zM33.401 44.941c0-.328 0-.657-.194-1.049-.193-.592-.387-1.641-.58-3.148l-.388-2.623c-.193-1.113-.387-1.441-1.16-1.441-5.287 0-10.059.59-14.313.525l-7.093-.066c-1.483 0-2.386-.263-5.158-.263-1.161 0-1.548.656-1.935 4.196C2.258 44.22 2 44.811 2 45.334c0 .395.258.721.58.721.129 0 .387-.132.516-.326l4.256-6.427c.451-.655 1.225-.983 3.674-.983h2.45c.774 0 1.162.589 1.162 1.771v20.455c0 2.163-.388 2.754-3.29 3.147-.902.064-1.16.131-1.16.394v.524c0 .263.515.132 1.032.132h13.476c.451 0 .966.065.966-.132l.064-.59c0-.263-.258-.394-1.224-.394-3.031 0-3.418-.328-3.418-4.327V39.236c0-.524.193-.785.645-.785l4.191-.197c1.161-.066 1.676.393 2.837 2.032l2.772 3.934.581 1.179c.128.264.516.461.708.461.389-.001.583-.265.583-.919"/><path d="M38.539 50.741c0 .657-.302.964-.949.964h-5.214c-.173 0-.518.044-1.078.044.474-3.42 1.767-5.041 3.879-5.041 2.284.001 3.362 2.455 3.362 4.033m5.043 7.715c.043-.265 0-.483-.086-.483l-.518-.088c-.172-.043-.258.088-.474.438l-1.508 2.366c-1.509 2.369-3.275 3.332-4.698 3.332-2.759 0-5.173-2.322-5.173-10.037 0-1.402.776-1.14 1.078-1.14h10.216c.776 0 1.164-.219 1.164-.657 0-3.506-3.922-6.399-7.931-6.399-6.725 0-9.44 5.479-9.44 9.38 0 6.706 5.431 9.73 9.915 9.73 1.638 0 3.577-.482 4.871-.877 1.077-.352 1.724-.395 1.81-1.053l.774-4.512zM108.938 46.313c0-.219-.088-.264-.301-.264l-3.924.133-3.838-.088c-.688 0-.775.088-.775.395 0 .263.26.394.734.394h.303c.731 0 1.594.701 1.594 1.622.043 4.12-.388 12.799-3.188 14.2-2.804-1.401-3.364-10.08-3.405-14.2 0-.921.86-1.622 1.596-1.622h.302c.474 0 .731-.131.731-.394 0-.307-.086-.395-.775-.395l-3.838.088-3.92-.133c-.217 0-.303.045-.303.264 0 .176.086.396.603.481l.69.088c.517.044.561 1.052.604 1.359.344 4.12 1.078 7.145 2.111 9.424-.817 2.278-2.242 4.076-3.448 5.04-2.759-1.796-3.404-10.08-3.404-14.2v-1.972c0-.307-.39-.438-1.207-.438l-4.7-.045c-.216 0-.303.045-.303.265 0 .175.087.395.604.48l.689.088c.518.044.561 1.053.604 1.359.732 9.38 3.621 12.974 7.716 15.867 1.681-1.404 3.019-3.156 4.095-5.26 1.293 2.323 3.02 3.855 4.959 5.26 4.096-2.894 6.768-6.487 7.5-15.867.041-.307.086-1.314.604-1.359l.689-.088c.513-.087.601-.307.601-.482M122.811 50.564c0 .658-.302.965-.949.965h-5.215c-.172 0-.517.043-1.078.043.475-3.42 1.769-5.04 3.88-5.04 2.283 0 3.362 2.454 3.362 4.032m5.043 7.715c.043-.264 0-.482-.086-.482l-.519-.088c-.171-.043-.258.088-.474.439l-1.508 2.367c-1.51 2.366-3.275 3.33-4.699 3.33-2.758 0-5.172-2.322-5.172-10.037 0-1.402.775-1.14 1.076-1.14h10.217c.774 0 1.164-.22 1.164-.657 0-3.508-3.924-6.4-7.932-6.4-6.724 0-9.439 5.479-9.439 9.38 0 6.707 5.431 9.731 9.914 9.731 1.638 0 3.578-.482 4.871-.878 1.075-.35 1.724-.394 1.811-1.052l.776-4.513z"/></svg>